<?xml version="1.0" standalone="no"?>
<!DOCTYPE svg PUBLIC "-//W3C//DTD SVG 1.1//EN" "http://www.w3.org/Graphics/SVG/1.1/DTD/svg11.dtd">
<svg width="100%" height="100%" viewBox="0 0 688 276" version="1.1" xmlns="http://www.w3.org/2000/svg" xmlns:xlink="http://www.w3.org/1999/xlink" xml:space="preserve" style="fill-rule:evenodd;clip-rule:evenodd;stroke-linecap:round;stroke-linejoin:round;stroke-miterlimit:1.41421;">
    <g transform="matrix(1,0,0,1,-1173,-889)">
        <g>
            <g transform="matrix(1,0,0,1,1035.24,766.223)">
                <g transform="matrix(0.359156,0,0,0.359156,323.226,98.4241)">
                    <path d="M299.69,307.559L238.377,307.559L238.377,524.02L299.69,524.02L299.69,453.899C312.563,467.787 321.709,475.579 346.777,475.579C380.99,475.579 411.139,450.172 411.139,388.52C411.139,329.916 390.475,304.849 350.164,304.849C331.194,304.849 315.95,311.624 299.69,326.19L299.69,307.559ZM299.69,371.921C307.82,361.42 316.289,356 327.468,356C342.373,356 350.503,365.485 350.503,388.181C350.503,413.926 341.695,425.105 326.113,425.105C313.579,425.105 306.465,420.024 299.69,410.2L299.69,371.921Z" style="fill:rgb(0,161,223);fill-rule:nonzero;"/>
                </g>
                <g transform="matrix(0.359156,0,0,0.359156,323.226,98.4241)">
                    <path d="M299.69,307.559L238.377,307.559L238.377,524.02L299.69,524.02L299.69,453.899C312.563,467.787 321.709,475.579 346.777,475.579C380.99,475.579 411.139,450.172 411.139,388.52C411.139,329.916 390.475,304.849 350.164,304.849C331.194,304.849 315.95,311.624 299.69,326.19L299.69,307.559ZM299.69,371.921C307.82,361.42 316.289,356 327.468,356C342.373,356 350.503,365.485 350.503,388.181C350.503,413.926 341.695,425.105 326.113,425.105C313.579,425.105 306.465,420.024 299.69,410.2L299.69,371.921Z" style="fill:rgb(0,161,223);fill-rule:nonzero;"/>
                </g>
                <g transform="matrix(0.359156,0,0,0.359156,323.226,98.4241)">
                    <path d="M734.984,426.121C727.193,426.46 721.095,426.46 713.982,426.46C698.738,426.46 695.012,419.346 695.012,407.151L695.012,358.371L733.629,358.371L733.629,307.897L695.012,307.897L695.012,272.667L633.698,272.667L633.698,307.897L611.34,307.897L611.34,358.371L633.698,358.371L633.698,409.861C633.698,456.947 650.635,475.24 690.269,475.24C708.562,475.24 729.564,470.159 741.082,463.045L734.984,426.121Z" style="fill:rgb(0,160,221);fill-rule:nonzero;"/>
                </g>
                <g transform="matrix(0.359156,0,0,0.359156,323.226,98.4241)">
                    <path d="M734.984,426.121C727.193,426.46 721.095,426.46 713.982,426.46C698.738,426.46 695.012,419.346 695.012,407.151L695.012,358.371L733.629,358.371L733.629,307.897L695.012,307.897L695.012,272.667L633.698,272.667L633.698,307.897L611.34,307.897L611.34,358.371L633.698,358.371L633.698,409.861C633.698,456.947 650.635,475.24 690.269,475.24C708.562,475.24 729.564,470.159 741.082,463.045L734.984,426.121Z" style="fill:rgb(0,160,221);fill-rule:nonzero;"/>
                </g>
                <g transform="matrix(-0.359156,0,0,-0.359156,603.948,465.302)">
                    <path d="M626.262,548.924L564.948,548.924L564.948,713.896L626.262,713.896L626.262,695.264C639.134,709.153 648.281,716.944 673.348,716.944C707.562,716.944 737.711,691.538 737.711,629.886C737.711,571.282 717.047,546.214 676.736,546.214C657.766,546.214 642.522,552.989 626.262,567.556L626.262,548.924ZM626.262,613.287C634.392,602.786 642.861,597.366 654.039,597.366C668.944,597.366 677.074,606.851 677.074,629.547C677.074,655.292 668.267,666.471 652.684,666.471C640.151,666.471 633.037,661.389 626.262,651.566L626.262,613.287Z" style="fill:rgb(0,160,221);fill-rule:nonzero;"/>
                </g>
                <g transform="matrix(0.359156,0,0,0.359156,323.226,98.4241)">
                    <rect x="758.697" y="307.559" width="61.314" height="164.971" style="fill:rgb(0,160,221);"/>
                </g>
                <g transform="matrix(0.359156,0,0,0.359156,323.226,98.4241)">
                    <rect x="758.697" y="307.559" width="61.314" height="164.971" style="fill:rgb(0,160,221);"/>
                </g>
                <g transform="matrix(0.359156,0,0,0.359156,323.226,98.4241)">
                    <path d="M490.407,307.559L429.093,307.559L429.093,524.02L490.407,524.02L490.407,453.899C503.279,467.787 512.425,475.579 537.493,475.579C571.707,475.579 601.855,450.172 601.855,388.52C601.855,329.916 581.192,304.849 540.88,304.849C521.91,304.849 506.667,311.624 490.407,326.19L490.407,307.559ZM490.407,371.921C498.537,361.42 507.005,356 518.184,356C533.089,356 541.219,365.485 541.219,388.181C541.219,413.926 532.412,425.105 516.829,425.105C504.295,425.105 497.182,420.024 490.407,410.2L490.407,371.921Z" style="fill:rgb(0,161,223);fill-rule:nonzero;"/>
                </g>
                <g transform="matrix(0.359156,0,0,0.359156,323.226,98.4241)">
                    <path d="M490.407,307.559L429.093,307.559L429.093,524.02L490.407,524.02L490.407,453.899C503.279,467.787 512.425,475.579 537.493,475.579C571.707,475.579 601.855,450.172 601.855,388.52C601.855,329.916 581.192,304.849 540.88,304.849C521.91,304.849 506.667,311.624 490.407,326.19L490.407,307.559ZM490.407,371.921C498.537,361.42 507.005,356 518.184,356C533.089,356 541.219,365.485 541.219,388.181C541.219,413.926 532.412,425.105 516.829,425.105C504.295,425.105 497.182,420.024 490.407,410.2L490.407,371.921Z" style="fill:rgb(0,161,223);fill-rule:nonzero;"/>
                </g>
                <g transform="matrix(0.359156,0,0,0.359156,323.226,98.4241)">
                    <path d="M963.64,472.53L1024.95,307.897L961.608,307.897L936.879,382.761C934.508,390.552 932.137,399.021 929.765,407.151C927.733,399.021 925.362,390.552 922.99,382.761L898.262,307.897L834.915,307.897L896.229,472.53L963.64,472.53Z" style="fill:rgb(0,160,221);fill-rule:nonzero;"/>
                </g>
                <g transform="matrix(0.359156,0,0,0.359156,323.226,98.4241)">
                    <path d="M963.64,472.53L1024.95,307.897L961.608,307.897L936.879,382.761C934.508,390.552 932.137,399.021 929.765,407.151C927.733,399.021 925.362,390.552 922.99,382.761L898.262,307.897L834.915,307.897L896.229,472.53L963.64,472.53Z" style="fill:rgb(0,160,221);fill-rule:nonzero;"/>
                </g>
                <g transform="matrix(-0.359156,0,0,-0.359156,954.512,465.302)">
                    <path d="M626.262,548.924L564.948,548.924L564.948,713.896L626.262,713.896L626.262,695.264C639.134,709.153 648.281,716.944 673.348,716.944C707.562,716.944 737.711,691.538 737.711,629.886C737.711,571.282 717.047,546.214 676.736,546.214C657.766,546.214 642.522,552.989 626.262,567.556L626.262,548.924ZM626.262,613.287C634.392,602.786 642.861,597.366 654.039,597.366C668.944,597.366 677.074,606.851 677.074,629.547C677.074,655.292 668.267,666.471 652.684,666.471C640.151,666.471 633.037,661.389 626.262,651.566L626.262,613.287Z" style="fill:rgb(0,160,221);fill-rule:nonzero;"/>
                </g>
                <g transform="matrix(-0.359156,0,0,-0.359156,954.512,465.302)">
                    <path d="M626.262,548.924L564.948,548.924L564.948,713.896L626.262,713.896L626.262,695.264C639.134,709.153 648.281,716.944 673.348,716.944C707.562,716.944 737.711,691.538 737.711,629.886C737.711,571.282 717.047,546.214 676.736,546.214C657.766,546.214 642.522,552.989 626.262,567.556L626.262,548.924ZM626.262,613.287C634.392,602.786 642.861,597.366 654.039,597.366C668.944,597.366 677.074,606.851 677.074,629.547C677.074,655.292 668.267,666.471 652.684,666.471C640.151,666.471 633.037,661.389 626.262,651.566L626.262,613.287Z" style="fill:rgb(0,160,221);fill-rule:nonzero;"/>
                </g>
                <g>
                    <g transform="matrix(0.253212,-4.49488e-18,-4.66579e-18,0.262289,176.37,94.9153)">
                        <path d="M493.371,439.058C493.371,409.714 468.695,385.891 438.3,385.891L214.444,385.891C184.049,385.891 159.372,409.714 159.372,439.058L159.372,655.544C159.372,684.887 184.049,708.71 214.444,708.71L438.3,708.71C468.695,708.71 493.371,684.887 493.371,655.544L493.371,439.058Z" style="fill:none;stroke-width:40.64px;stroke:rgb(128,215,65);"/>
                    </g>
                    <g transform="matrix(0.253212,-4.49488e-18,-4.66579e-18,0.262289,176.37,94.9153)">
                        <path d="M493.371,439.058C493.371,409.714 468.695,385.891 438.3,385.891L214.444,385.891C184.049,385.891 159.372,409.714 159.372,439.058L159.372,655.544C159.372,684.887 184.049,708.71 214.444,708.71L438.3,708.71C468.695,708.71 493.371,684.887 493.371,655.544L493.371,439.058Z" style="fill:none;stroke-width:40.64px;stroke:rgb(128,215,65);"/>
                    </g>
                    <g transform="matrix(0.177465,0,0,0.177465,-11.6245,-874.907)">
                        <circle cx="1591.5" cy="6227.85" r="86.381" style="fill:rgb(0,143,215);"/>
                    </g>
                    <g transform="matrix(0.177465,0,0,0.177465,-11.6245,-874.907)">
                        <circle cx="1591.5" cy="6227.85" r="86.381" style="fill:rgb(0,160,221);"/>
                    </g>
                </g>
                <g transform="matrix(0.359156,0,0,0.359156,-70.444,-1237.05)">
                    <path d="M1850.73,3978.16C1850.73,3998.82 1867.33,4009.32 1885.28,4009.32C1903.24,4009.32 1919.83,3998.82 1919.83,3978.16C1919.83,3957.15 1903.24,3946.65 1885.28,3946.65C1867.33,3946.65 1850.73,3957.15 1850.73,3978.16Z" style="fill:rgb(128,215,65);"/>
                </g>
                <g transform="matrix(0.359156,0,0,0.359156,-70.444,-1237.05)">
                    <path d="M1850.73,3978.16C1850.73,3998.82 1867.33,4009.32 1885.28,4009.32C1903.24,4009.32 1919.83,3998.82 1919.83,3978.16C1919.83,3957.15 1903.24,3946.65 1885.28,3946.65C1867.33,3946.65 1850.73,3957.15 1850.73,3978.16Z" style="fill:rgb(128,215,65);"/>
                </g>
            </g>
            <g transform="matrix(1.96467,0,0,1.96467,1098.44,765.426)">
                <path d="M75.431,157.548L75.431,170.804L76.409,170.804L76.409,166.349L79.581,166.349C82.993,166.349 84.71,164.893 84.71,161.959C84.71,159.004 82.993,157.548 79.538,157.548L75.431,157.548ZM76.409,165.436L76.409,158.461L79.538,158.461C82.363,158.461 83.754,159.612 83.754,161.959C83.775,164.284 82.363,165.436 79.56,165.436L76.409,165.436Z" style="fill:rgb(128,128,128);fill-rule:nonzero;"/>
                <path d="M86.84,161.916C88.361,161.525 89.491,161.373 90.447,161.373C92.49,161.373 93.055,162.22 93.055,164.763C91.925,164.741 91.207,164.741 89.817,164.741C86.992,164.741 85.644,165.74 85.644,167.892C85.644,169.913 86.774,170.999 89.121,170.999C90.925,170.999 92.098,170.152 93.055,168.935L93.055,170.804L93.989,170.804L93.989,164.784C93.989,161.807 93.272,160.525 90.555,160.525C89.425,160.525 88.339,160.677 86.666,161.133L86.84,161.916ZM93.055,165.48L93.055,168C92.098,169.369 90.925,170.239 89.295,170.239C87.426,170.239 86.535,169.348 86.535,167.827C86.535,166.132 87.6,165.48 89.904,165.48L93.055,165.48Z" style="fill:rgb(128,128,128);fill-rule:nonzero;"/>
                <path d="M103.507,161.416C102.464,160.873 101.051,160.525 99.835,160.525C97.857,160.525 96.684,161.481 96.684,163.089C96.684,164.589 97.618,165.132 99.943,165.893C102.268,166.675 103.029,167.088 103.029,168.326C103.029,169.761 101.877,170.173 100.508,170.173C99.074,170.173 97.596,169.608 96.618,168.674L96.184,169.326C97.227,170.369 99.009,170.999 100.508,170.999C102.399,170.999 103.92,170.239 103.92,168.326C103.92,166.675 103.029,166.023 100.378,165.154C98.466,164.523 97.575,164.176 97.575,163.068C97.575,161.981 98.4,161.307 99.813,161.307C100.878,161.307 102.225,161.633 103.225,162.133L103.507,161.416Z" style="fill:rgb(128,128,128);fill-rule:nonzero;"/>
                <path d="M112.591,161.416C111.547,160.873 110.135,160.525 108.918,160.525C106.941,160.525 105.767,161.481 105.767,163.089C105.767,164.589 106.701,165.132 109.027,165.893C111.352,166.675 112.112,167.088 112.112,168.326C112.112,169.761 110.961,170.173 109.592,170.173C108.157,170.173 106.68,169.608 105.702,168.674L105.267,169.326C106.31,170.369 108.092,170.999 109.592,170.999C111.482,170.999 113.003,170.239 113.003,168.326C113.003,166.675 112.112,166.023 109.461,165.154C107.549,164.523 106.658,164.176 106.658,163.068C106.658,161.981 107.484,161.307 108.896,161.307C109.961,161.307 111.308,161.633 112.308,162.133L112.591,161.416Z" style="fill:rgb(128,128,128);fill-rule:nonzero;"/>
                <path d="M124.217,160.721L123.282,160.721L123.282,162.394C122.282,161.307 120.74,160.525 119.132,160.525C116.698,160.525 115.003,161.894 115.003,165.74C115.003,169.087 117.089,170.347 119.371,170.347C121.174,170.347 122.196,169.674 123.282,168.413L123.282,169.413C123.282,172.042 121.935,173.216 119.87,173.216C118.219,173.216 117.002,172.825 115.785,172.129L115.502,172.846C116.698,173.629 118.11,174.063 119.957,174.063C122.435,174.063 124.217,172.694 124.217,169.413L124.217,160.721ZM123.282,167.414C122.239,168.718 121.218,169.565 119.566,169.565C117.762,169.565 115.937,168.609 115.937,165.74C115.937,162.437 117.371,161.351 119.349,161.351C120.848,161.351 122.239,162.155 123.282,163.437L123.282,167.414Z" style="fill:rgb(128,128,128);fill-rule:nonzero;"/>
                <path d="M134.93,168.739C133.822,169.804 132.561,170.195 131.214,170.195C129.258,170.195 127.541,169.13 127.498,166.001L135.625,166.001C135.669,165.762 135.669,165.61 135.669,165.436C135.56,161.959 133.8,160.525 131.301,160.525C128.758,160.525 126.585,162.003 126.585,165.849C126.585,169.587 128.671,170.999 131.192,170.999C132.8,170.999 134.234,170.521 135.343,169.326L134.93,168.739ZM127.52,165.241C127.693,162.35 129.432,161.329 131.301,161.329C133.257,161.329 134.691,162.416 134.799,165.241L127.52,165.241Z" style="fill:rgb(128,128,128);fill-rule:nonzero;"/>
                <path d="M139.319,160.721L138.363,160.721L138.363,170.804L139.319,170.804L139.319,163.698C140.341,162.263 141.753,161.416 143.318,161.416C145.252,161.416 145.839,162.459 145.839,164.719L145.839,170.804L146.773,170.804L146.773,164.545C146.773,161.829 145.817,160.525 143.427,160.525C141.753,160.525 140.341,161.286 139.319,162.589L139.319,160.721Z" style="fill:rgb(128,128,128);fill-rule:nonzero;"/>
                <path d="M150.424,161.916C151.945,161.525 153.075,161.373 154.031,161.373C156.074,161.373 156.639,162.22 156.639,164.763C155.509,164.741 154.792,164.741 153.401,164.741C150.576,164.741 149.229,165.74 149.229,167.892C149.229,169.913 150.359,170.999 152.706,170.999C154.509,170.999 155.683,170.152 156.639,168.935L156.639,170.804L157.573,170.804L157.573,164.784C157.573,161.807 156.856,160.525 154.14,160.525C153.01,160.525 151.923,160.677 150.25,161.133L150.424,161.916ZM156.639,165.48L156.639,168C155.683,169.369 154.509,170.239 152.88,170.239C151.011,170.239 150.12,169.348 150.12,167.827C150.12,166.132 151.185,165.48 153.488,165.48L156.639,165.48Z" style="fill:rgb(128,128,128);fill-rule:nonzero;"/>
                <path d="M168.135,170.804L169.069,170.804L169.069,160.721L168.135,160.721L168.135,167.761C167.178,169.196 165.679,170.13 164.158,170.13C162.267,170.13 161.615,169.022 161.615,166.762L161.615,160.721L160.659,160.721L160.659,166.914C160.659,169.63 161.615,170.999 163.962,170.999C165.592,170.999 167.091,170.152 168.135,168.87L168.135,170.804Z" style="fill:rgb(128,128,128);fill-rule:nonzero;"/>
                <path d="M180.108,168.739C179,169.804 177.74,170.195 176.392,170.195C174.437,170.195 172.72,169.13 172.676,166.001L180.804,166.001C180.847,165.762 180.847,165.61 180.847,165.436C180.738,161.959 178.978,160.525 176.479,160.525C173.937,160.525 171.764,162.003 171.764,165.849C171.764,169.587 173.85,170.999 176.371,170.999C177.979,170.999 179.413,170.521 180.521,169.326L180.108,168.739ZM172.698,165.241C172.872,162.35 174.61,161.329 176.479,161.329C178.435,161.329 179.869,162.416 179.978,165.241L172.698,165.241Z" style="fill:rgb(128,128,128);fill-rule:nonzero;"/>
                <path d="M197.297,158.417C195.885,157.7 194.19,157.331 192.603,157.331C190.191,157.331 188.648,158.678 188.648,160.525C188.648,162.807 190.018,163.372 192.821,164.306C195.993,165.371 196.819,165.979 196.819,167.609C196.819,169.217 195.733,170.108 193.56,170.108C191.799,170.108 189.931,169.478 188.475,168.196L187.997,168.935C189.453,170.26 191.517,170.999 193.581,170.999C195.798,170.999 197.819,170.087 197.819,167.501C197.819,165.48 196.624,164.567 193.516,163.546C190.539,162.546 189.648,162.068 189.648,160.46C189.648,159.265 190.778,158.2 192.603,158.2C194.125,158.2 195.624,158.526 196.971,159.199L197.297,158.417Z" style="fill:rgb(128,128,128);fill-rule:nonzero;"/>
                <path d="M204.577,160.525C201.491,160.525 199.644,162.503 199.644,165.849C199.644,169.065 201.47,170.999 204.555,170.999C207.663,170.999 209.51,169.065 209.51,165.849C209.51,162.503 207.663,160.525 204.577,160.525ZM204.555,170.173C202.035,170.173 200.557,168.565 200.557,165.849C200.557,163.024 202.056,161.351 204.577,161.351C207.076,161.351 208.576,163.024 208.576,165.849C208.576,168.565 207.076,170.173 204.555,170.173Z" style="fill:rgb(128,128,128);fill-rule:nonzero;"/>
                <path d="M217.268,156.527C216.855,156.418 216.225,156.374 215.443,156.374C213.335,156.374 212.552,157.483 212.552,159.591L212.552,160.721L211.053,160.721L211.053,161.525L212.552,161.525L212.552,170.804L213.487,170.804L213.487,161.525L216.942,161.525L216.942,160.721L213.487,160.721L213.487,159.591C213.487,158.048 213.965,157.178 215.551,157.178C216.181,157.178 216.768,157.222 217.181,157.287L217.268,156.527Z" style="fill:rgb(128,128,128);fill-rule:nonzero;"/>
                <path d="M223.787,169.804C222.896,169.956 222.549,169.956 222.157,169.956C220.81,169.956 220.115,169.5 220.115,167.783L220.115,161.525L223.461,161.525L223.461,160.721L220.115,160.721L220.115,157.982L219.159,157.982L219.159,160.721L217.572,160.721L217.572,161.525L219.159,161.525L219.159,167.805C219.159,169.913 219.963,170.825 221.94,170.825C222.418,170.825 222.918,170.782 223.896,170.521L223.787,169.804Z" style="fill:rgb(128,128,128);fill-rule:nonzero;"/>
                <path d="M235.913,170.804L239.499,160.721L238.564,160.721L235.848,168.261C235.674,168.761 235.522,169.239 235.37,169.695C235.239,169.239 235.131,168.761 234.957,168.261L232.566,160.721L231.632,160.721L229.242,168.261C229.068,168.783 228.937,169.261 228.829,169.695C228.677,169.217 228.525,168.739 228.351,168.261L225.634,160.721L224.7,160.721L228.286,170.804L229.35,170.804L232.11,162.263L234.848,170.804L235.913,170.804Z" style="fill:rgb(128,128,128);fill-rule:nonzero;"/>
                <path d="M241.541,161.916C243.062,161.525 244.192,161.373 245.149,161.373C247.191,161.373 247.756,162.22 247.756,164.763C246.626,164.741 245.909,164.741 244.518,164.741C241.693,164.741 240.346,165.74 240.346,167.892C240.346,169.913 241.476,170.999 243.823,170.999C245.627,170.999 246.8,170.152 247.756,168.935L247.756,170.804L248.691,170.804L248.691,164.784C248.691,161.807 247.974,160.525 245.257,160.525C244.127,160.525 243.041,160.677 241.367,161.133L241.541,161.916ZM247.756,165.48L247.756,168C246.8,169.369 245.627,170.239 243.997,170.239C242.128,170.239 241.237,169.348 241.237,167.827C241.237,166.132 242.302,165.48 244.605,165.48L247.756,165.48Z" style="fill:rgb(128,128,128);fill-rule:nonzero;"/>
                <path d="M253.037,160.721L252.081,160.721L252.081,170.804L253.037,170.804L253.037,164.415C253.624,162.459 254.841,161.459 256.275,161.459C256.644,161.459 256.992,161.459 257.513,161.503L257.6,160.59C257.014,160.525 256.666,160.525 256.297,160.525C254.841,160.525 253.472,161.546 253.037,163.002L253.037,160.721Z" style="fill:rgb(128,128,128);fill-rule:nonzero;"/>
                <path d="M266.64,168.739C265.532,169.804 264.272,170.195 262.924,170.195C260.969,170.195 259.252,169.13 259.208,166.001L267.336,166.001C267.379,165.762 267.379,165.61 267.379,165.436C267.271,161.959 265.51,160.525 263.011,160.525C260.469,160.525 258.296,162.003 258.296,165.849C258.296,169.587 260.382,170.999 262.903,170.999C264.511,170.999 265.945,170.521 267.053,169.326L266.64,168.739ZM259.23,165.241C259.404,162.35 261.143,161.329 263.011,161.329C264.967,161.329 266.401,162.416 266.51,165.241L259.23,165.241Z" style="fill:rgb(128,128,128);fill-rule:nonzero;"/>
                <rect x="270.074" y="156.505" width="0.956" height="14.299" style="fill:rgb(128,128,128);fill-rule:nonzero;"/>
                <path d="M276.81,156.961C276.441,156.961 276.159,157.2 276.159,157.613C276.159,158.004 276.441,158.243 276.81,158.243C277.202,158.243 277.462,158.004 277.462,157.613C277.462,157.2 277.202,156.961 276.81,156.961ZM280.635,156.961C280.266,156.961 279.983,157.2 279.983,157.613C279.983,158.004 280.266,158.243 280.635,158.243C281.005,158.243 281.309,158.004 281.309,157.613C281.309,157.2 281.005,156.961 280.635,156.961ZM278.745,160.525C275.659,160.525 273.812,162.503 273.812,165.849C273.812,169.065 275.637,170.999 278.723,170.999C281.83,170.999 283.677,169.065 283.677,165.849C283.677,162.503 281.83,160.525 278.745,160.525ZM278.723,170.173C276.202,170.173 274.724,168.565 274.724,165.849C274.724,163.024 276.224,161.351 278.745,161.351C281.244,161.351 282.743,163.024 282.743,165.849C282.743,168.565 281.244,170.173 278.723,170.173Z" style="fill:rgb(128,128,128);fill-rule:nonzero;"/>
                <path d="M292.609,161.416C291.566,160.873 290.153,160.525 288.936,160.525C286.959,160.525 285.785,161.481 285.785,163.089C285.785,164.589 286.72,165.132 289.045,165.893C291.37,166.675 292.131,167.088 292.131,168.326C292.131,169.761 290.979,170.173 289.61,170.173C288.176,170.173 286.698,169.608 285.72,168.674L285.285,169.326C286.329,170.369 288.111,170.999 289.61,170.999C291.501,170.999 293.022,170.239 293.022,168.326C293.022,166.675 292.131,166.023 289.48,165.154C287.567,164.523 286.676,164.176 286.676,163.068C286.676,161.981 287.502,161.307 288.915,161.307C289.979,161.307 291.327,161.633 292.326,162.133L292.609,161.416Z" style="fill:rgb(128,128,128);fill-rule:nonzero;"/>
                <path d="M302.996,170.804L303.931,170.804L303.931,160.721L302.996,160.721L302.996,167.761C302.04,169.196 300.541,170.13 299.019,170.13C297.129,170.13 296.477,169.022 296.477,166.762L296.477,160.721L295.521,160.721L295.521,166.914C295.521,169.63 296.477,170.999 298.824,170.999C300.454,170.999 301.953,170.152 302.996,168.87L302.996,170.804Z" style="fill:rgb(128,128,128);fill-rule:nonzero;"/>
                <path d="M308.516,160.721L307.56,160.721L307.56,170.804L308.516,170.804L308.516,163.698C309.537,162.263 310.95,161.416 312.514,161.416C314.448,161.416 315.035,162.459 315.035,164.719L315.035,170.804L315.969,170.804L315.969,164.545C315.969,161.829 315.013,160.525 312.623,160.525C310.95,160.525 309.537,161.286 308.516,162.589L308.516,160.721Z" style="fill:rgb(128,128,128);fill-rule:nonzero;"/>
                <path d="M327.878,160.721L326.944,160.721L326.944,162.394C325.944,161.307 324.401,160.525 322.793,160.525C320.359,160.525 318.664,161.894 318.664,165.74C318.664,169.087 320.75,170.347 323.032,170.347C324.836,170.347 325.857,169.674 326.944,168.413L326.944,169.413C326.944,172.042 325.596,173.216 323.532,173.216C321.88,173.216 320.663,172.825 319.446,172.129L319.164,172.846C320.359,173.629 321.772,174.063 323.619,174.063C326.096,174.063 327.878,172.694 327.878,169.413L327.878,160.721ZM326.944,167.414C325.9,168.718 324.879,169.565 323.228,169.565C321.424,169.565 319.598,168.609 319.598,165.74C319.598,162.437 321.033,161.351 323.01,161.351C324.51,161.351 325.9,162.155 326.944,163.437L326.944,167.414Z" style="fill:rgb(128,128,128);fill-rule:nonzero;"/>
                <path d="M338.591,168.739C337.483,169.804 336.223,170.195 334.875,170.195C332.919,170.195 331.203,169.13 331.159,166.001L339.287,166.001C339.33,165.762 339.33,165.61 339.33,165.436C339.221,161.959 337.461,160.525 334.962,160.525C332.42,160.525 330.247,162.003 330.247,165.849C330.247,169.587 332.333,170.999 334.854,170.999C336.462,170.999 337.896,170.521 339.004,169.326L338.591,168.739ZM331.181,165.241C331.355,162.35 333.093,161.329 334.962,161.329C336.918,161.329 338.352,162.416 338.461,165.241L331.181,165.241Z" style="fill:rgb(128,128,128);fill-rule:nonzero;"/>
                <path d="M342.981,160.721L342.025,160.721L342.025,170.804L342.981,170.804L342.981,163.698C344.002,162.263 345.415,161.416 346.979,161.416C348.913,161.416 349.5,162.459 349.5,164.719L349.5,170.804L350.435,170.804L350.435,164.545C350.435,161.829 349.478,160.525 347.088,160.525C345.415,160.525 344.002,161.286 342.981,162.589L342.981,160.721Z" style="fill:rgb(128,128,128);fill-rule:nonzero;"/>
            </g>
        </g>
    </g>
</svg>
