<?xml version="1.0" standalone="no"?><!DOCTYPE svg PUBLIC "-//W3C//DTD SVG 1.1//EN" "http://www.w3.org/Graphics/SVG/1.1/DTD/svg11.dtd"><svg width="100%" height="100%" viewBox="0 0 169 169" version="1.1" xmlns="http://www.w3.org/2000/svg" xmlns:xlink="http://www.w3.org/1999/xlink" xml:space="preserve" style="fill-rule:evenodd;clip-rule:evenodd;stroke-linejoin:round;stroke-miterlimit:1.41421;"><g><circle cx="84.064" cy="84.135" r="84.019" style="fill:#efefef;"/><g><path d="M63.105,35.981l0,3.783l1.346,0c1.085,0 1.593,-0.335 1.593,-1.054c0,-0.459 -0.285,-0.794 -0.856,-0.924c0.391,-0.118 0.608,-0.378 0.608,-0.763c0,-0.707 -0.453,-1.042 -1.42,-1.042l-1.271,0ZM63.676,36.515l0.7,0c0.602,0 0.881,0.173 0.881,0.552c0,0.31 -0.242,0.483 -0.664,0.483l-0.917,0l0,-1.035ZM63.676,38.077l0.917,0c0.552,0 0.862,0.217 0.862,0.602c0,0.372 -0.316,0.545 -0.992,0.545l-0.787,0l0,-1.147Z" style="fill:#323232;fill-rule:nonzero;"/><path d="M67.21,36.837l-0.558,0l0,2.927l0.558,0l0,-1.687c0.149,-0.465 0.459,-0.731 0.855,-0.731c0.106,0 0.205,0 0.354,0.012l0.037,-0.552c-0.167,-0.019 -0.267,-0.019 -0.372,-0.019c-0.391,0 -0.719,0.255 -0.874,0.621l0,-0.571Z" style="fill:#323232;fill-rule:nonzero;"/><path d="M68.933,37.432c0.428,-0.105 0.751,-0.155 1.005,-0.155c0.496,0 0.614,0.155 0.614,0.726c-0.273,-0.006 -0.441,-0.006 -0.782,-0.006c-0.818,0 -1.221,0.316 -1.221,0.936c0,0.632 0.335,0.886 0.992,0.886c0.453,0 0.75,-0.21 1.011,-0.421l0,0.366l0.558,0l0,-1.755c0,-0.862 -0.261,-1.228 -1.079,-1.228c-0.316,0 -0.626,0.05 -1.191,0.199l0.093,0.452ZM70.552,38.4l0,0.558c-0.224,0.248 -0.534,0.446 -0.85,0.446c-0.421,0 -0.638,-0.18 -0.638,-0.527c0,-0.378 0.254,-0.477 0.775,-0.477l0.713,0Z" style="fill:#323232;fill-rule:nonzero;"/><path d="M72.474,36.837l-0.558,0l0,2.927l0.558,0l0,-1.935c0.285,-0.328 0.607,-0.521 0.967,-0.521c0.446,0 0.521,0.23 0.521,0.763l0,1.693l0.558,0l0,-1.829c0,-0.794 -0.31,-1.148 -0.974,-1.148c-0.434,0 -0.75,0.187 -1.072,0.478l0,-0.428Z" style="fill:#323232;fill-rule:nonzero;"/><path d="M77.545,39.026c-0.366,0.242 -0.626,0.316 -0.986,0.316c-0.533,0 -0.88,-0.403 -0.88,-1.023c0,-0.639 0.36,-1.066 0.899,-1.066c0.211,0 0.552,0.037 0.868,0.192l0.192,-0.378c-0.347,-0.205 -0.744,-0.286 -1.066,-0.286c-0.868,0 -1.445,0.614 -1.445,1.538c0,0.899 0.546,1.5 1.358,1.5c0.527,0 0.837,-0.099 1.265,-0.421l-0.205,-0.372Z" style="fill:#323232;fill-rule:nonzero;"/><path d="M78.866,35.715l-0.558,0l0,4.049l0.558,0l0,-1.891c0.291,-0.335 0.607,-0.54 0.967,-0.54c0.446,0 0.521,0.236 0.521,0.769l0,1.662l0.558,0l0,-1.829c0,-0.794 -0.248,-1.148 -0.912,-1.148c-0.44,0 -0.806,0.193 -1.134,0.515l0,-1.587Z" style="fill:#323232;fill-rule:nonzero;"/><path d="M83.999,39.013c-0.372,0.261 -0.669,0.36 -1.06,0.36c-0.483,0 -0.837,-0.254 -0.886,-0.918l2.17,0c0.018,-0.111 0.018,-0.173 0.018,-0.254c-0.018,-0.911 -0.49,-1.42 -1.302,-1.42c-0.812,0 -1.42,0.465 -1.42,1.544c0,1.048 0.596,1.494 1.395,1.494c0.527,0 0.887,-0.124 1.29,-0.446l-0.205,-0.36ZM82.065,38.021c0.081,-0.564 0.434,-0.787 0.874,-0.787c0.478,0 0.763,0.273 0.806,0.787l-1.68,0Z" style="fill:#323232;fill-rule:nonzero;"/><path d="M85.438,36.837l-0.558,0l0,2.927l0.558,0l0,-1.935c0.285,-0.328 0.607,-0.521 0.967,-0.521c0.446,0 0.521,0.23 0.521,0.763l0,1.693l0.558,0l0,-1.829c0,-0.794 -0.31,-1.148 -0.974,-1.148c-0.434,0 -0.75,0.187 -1.072,0.478l0,-0.428Z" style="fill:#323232;fill-rule:nonzero;"/><rect x="88.265" y="35.715" width="0.558" height="4.049" style="fill:#323232;fill-rule:nonzero;"/><path d="M90.342,35.64c-0.174,0 -0.335,0.124 -0.335,0.335c0,0.205 0.161,0.323 0.335,0.323c0.198,0 0.341,-0.118 0.341,-0.323c0,-0.211 -0.143,-0.335 -0.341,-0.335ZM91.514,35.64c-0.192,0 -0.341,0.124 -0.341,0.335c0,0.205 0.149,0.323 0.341,0.323c0.18,0 0.341,-0.118 0.341,-0.323c0,-0.211 -0.161,-0.335 -0.341,-0.335ZM90.931,36.781c-0.88,0 -1.469,0.614 -1.469,1.538c0,0.899 0.582,1.5 1.463,1.5c0.886,0 1.475,-0.601 1.475,-1.5c0,-0.924 -0.589,-1.538 -1.469,-1.538ZM90.925,39.342c-0.552,0 -0.918,-0.409 -0.918,-1.023c0,-0.639 0.372,-1.06 0.924,-1.06c0.552,0 0.924,0.421 0.924,1.06c0,0.614 -0.372,1.023 -0.93,1.023Z" style="fill:#323232;fill-rule:nonzero;"/><path d="M95.029,37.036c-0.378,-0.162 -0.744,-0.261 -1.091,-0.261c-0.657,0 -1.023,0.298 -1.023,0.831c0,0.477 0.298,0.645 0.874,0.825c0.552,0.173 0.806,0.186 0.806,0.558c0,0.241 -0.217,0.365 -0.539,0.365c-0.447,0 -0.707,-0.117 -1.042,-0.353l-0.235,0.391c0.378,0.279 0.818,0.427 1.283,0.427c0.645,0 1.054,-0.316 1.054,-0.837c0,-0.601 -0.316,-0.737 -1.029,-0.967c-0.385,-0.124 -0.651,-0.167 -0.651,-0.428c0,-0.235 0.173,-0.365 0.49,-0.365c0.272,0 0.607,0.105 0.954,0.235l0.149,-0.421Z" style="fill:#323232;fill-rule:nonzero;"/><path d="M97.757,39.764l0.558,0l0,-2.927l-0.558,0l0,1.928c-0.229,0.279 -0.57,0.546 -0.917,0.546c-0.441,0 -0.577,-0.248 -0.577,-0.781l0,-1.693l-0.558,0l0,1.823c0,0.787 0.298,1.159 0.955,1.159c0.421,0 0.769,-0.21 1.097,-0.477l0,0.422Z" style="fill:#323232;fill-rule:nonzero;"/><path d="M99.741,36.837l-0.558,0l0,2.927l0.558,0l0,-1.935c0.285,-0.328 0.608,-0.521 0.967,-0.521c0.447,0 0.521,0.23 0.521,0.763l0,1.693l0.558,0l0,-1.829c0,-0.794 -0.31,-1.148 -0.973,-1.148c-0.434,0 -0.75,0.187 -1.073,0.478l0,-0.428Z" style="fill:#323232;fill-rule:nonzero;"/><path d="M105.203,36.837l-0.558,0l0,0.372c-0.291,-0.235 -0.669,-0.428 -1.091,-0.428c-0.707,0 -1.159,0.416 -1.159,1.488c0,0.961 0.539,1.364 1.209,1.364c0.49,0 0.756,-0.155 1.041,-0.44l0,0.124c0,0.707 -0.316,0.943 -0.849,0.943c-0.397,0 -0.775,-0.106 -1.066,-0.236l-0.155,0.422c0.341,0.192 0.793,0.31 1.289,0.31c0.825,0 1.339,-0.422 1.339,-1.439l0,-2.48ZM104.645,38.691c-0.235,0.26 -0.471,0.502 -0.861,0.502c-0.441,0 -0.837,-0.229 -0.837,-0.924c0,-0.762 0.316,-1.016 0.787,-1.016c0.353,0 0.614,0.186 0.911,0.496l0,0.942Z" style="fill:#323232;fill-rule:nonzero;"/><path d="M89.144,29.39c0,0.104 -0.091,0.195 -0.195,0.195l-9.769,0c-0.104,0 -0.195,-0.091 -0.195,-0.195l0,-5.08c0,-0.104 0.091,-0.195 0.195,-0.195l9.769,0c0.104,0 0.195,0.091 0.195,0.195l0,5.08ZM89.926,24.31c0,-0.537 -0.44,-0.977 -0.977,-0.977l-9.769,0c-0.537,0 -0.977,0.44 -0.977,0.977l0,6.643c0,0.537 0.44,0.977 0.977,0.977l3.321,0c0,0.531 -0.39,0.946 -0.39,1.172c0,0.214 0.177,0.391 0.39,0.391l3.126,0c0.214,0 0.391,-0.177 0.391,-0.391c0,-0.213 -0.391,-0.653 -0.391,-1.172l3.322,0c0.537,0 0.977,-0.44 0.977,-0.977l0,-6.643Z" style="fill:#323232;fill-rule:nonzero;"/></g><g><path d="M126.579,68.986c-0.397,0.248 -0.793,0.366 -1.314,0.366c-0.769,0 -1.222,-0.521 -1.222,-1.407c0,-0.937 0.441,-1.426 1.278,-1.426c0.365,0 0.781,0.074 1.147,0.229l0.179,-0.434c-0.365,-0.211 -0.886,-0.329 -1.345,-0.329c-1.178,0 -1.841,0.701 -1.841,1.96c0,1.24 0.663,1.94 1.779,1.94c0.62,0 1.135,-0.155 1.556,-0.459l-0.217,-0.44Z" style="fill:#323232;fill-rule:nonzero;"/><path d="M130.454,69.786l-1.01,-1.221c0.57,-0.174 0.923,-0.614 0.923,-1.209c0,-0.837 -0.558,-1.309 -1.55,-1.309l-1.401,0l0,3.782l0.571,0l0,-1.19l0.88,0l0.961,1.19l0.626,0l0,-0.043ZM127.987,68.106l0,-1.525l0.837,0c0.613,0.006 0.961,0.285 0.961,0.775c0,0.477 -0.348,0.75 -0.961,0.75l-0.837,0Z" style="fill:#323232;fill-rule:nonzero;"/><path d="M134.664,69.829l0.583,0l-0.137,-3.782l-0.694,0l-1.166,2.722c-0.037,0.081 -0.068,0.168 -0.086,0.23c-0.019,-0.062 -0.044,-0.149 -0.081,-0.23l-1.166,-2.722l-0.688,0l-0.136,3.782l0.576,0l0.087,-2.548l0,-0.192l1.184,2.74l0.453,0l1.19,-2.74l0,0.205l0.081,2.535Z" style="fill:#323232;fill-rule:nonzero;"/><path d="M134.542,59.04c0,0.104 -0.092,0.196 -0.195,0.196l-9.769,0c-0.104,0 -0.196,-0.092 -0.196,-0.196l0,-5.08c0,-0.103 0.092,-0.195 0.196,-0.195l9.769,0c0.103,0 0.195,0.092 0.195,0.195l0,5.08ZM135.324,53.96c0,-0.537 -0.44,-0.977 -0.977,-0.977l-9.769,0c-0.538,0 -0.977,0.44 -0.977,0.977l0,6.643c0,0.537 0.439,0.977 0.977,0.977l3.321,0c0,0.531 -0.391,0.946 -0.391,1.172c0,0.214 0.177,0.391 0.391,0.391l3.126,0c0.214,0 0.391,-0.177 0.391,-0.391c0,-0.213 -0.391,-0.653 -0.391,-1.172l3.322,0c0.537,0 0.977,-0.44 0.977,-0.977l0,-6.643Z" style="fill:#323232;fill-rule:nonzero;"/></g><g><path d="M34.166,69.014l0,-0.533l-2.04,0l0,-1.097l1.73,0l0,-0.533l-1.73,0l0,-1.085l1.984,0l0,-0.534l-2.554,0l0,3.782l2.61,0Z" style="fill:#323232;fill-rule:nonzero;"/><path d="M38.345,66.038c-0.372,0 -0.676,0.162 -1.073,0.565c-0.124,-0.397 -0.415,-0.565 -0.856,-0.565c-0.384,0 -0.688,0.193 -0.985,0.484l0,-0.434l-0.558,0l0,2.926l0.558,0l0,-1.94c0.285,-0.323 0.595,-0.515 0.892,-0.515c0.379,0 0.478,0.242 0.478,0.763l0,1.692l0.558,0l0,-1.94c0.335,-0.347 0.62,-0.515 0.893,-0.515c0.378,0 0.465,0.242 0.465,0.763l0,1.692l0.558,0l0,-1.829c0,-0.787 -0.31,-1.147 -0.93,-1.147Z" style="fill:#323232;fill-rule:nonzero;"/><path d="M40.205,66.683c0.427,-0.105 0.75,-0.155 1.004,-0.155c0.496,0 0.614,0.155 0.614,0.726c-0.273,-0.007 -0.44,-0.007 -0.781,-0.007c-0.819,0 -1.222,0.317 -1.222,0.937c0,0.632 0.335,0.886 0.992,0.886c0.453,0 0.75,-0.211 1.011,-0.421l0,0.365l0.558,0l0,-1.754c0,-0.862 -0.261,-1.228 -1.079,-1.228c-0.316,0 -0.626,0.05 -1.19,0.199l0.093,0.452ZM41.823,67.65l0,0.558c-0.223,0.248 -0.533,0.447 -0.85,0.447c-0.421,0 -0.638,-0.18 -0.638,-0.527c0,-0.378 0.254,-0.478 0.775,-0.478l0.713,0Z" style="fill:#323232;fill-rule:nonzero;"/><path d="M43.131,65.239c0,0.198 0.155,0.31 0.335,0.31c0.18,0 0.335,-0.112 0.335,-0.31c0,-0.205 -0.155,-0.31 -0.335,-0.31c-0.18,0 -0.335,0.105 -0.335,0.31ZM43.751,69.014l0,-2.926l-0.558,0l0,2.926l0.558,0Z" style="fill:#323232;fill-rule:nonzero;"/><rect x="44.613" y="64.966" width="0.558" height="4.049" style="fill:#323232;fill-rule:nonzero;"/><path d="M43.006,61.325c0,0.104 -0.092,0.195 -0.195,0.195l-8.988,0c-0.104,0 -0.195,-0.091 -0.195,-0.195l0,-4.689c0.128,0.146 0.268,0.281 0.421,0.403c0.873,0.671 1.752,1.355 2.601,2.063c0.458,0.385 1.026,0.855 1.661,0.855l0.012,0c0.635,0 1.203,-0.47 1.661,-0.855c0.848,-0.708 1.727,-1.392 2.601,-2.063c0.152,-0.122 0.293,-0.257 0.421,-0.403l0,4.689ZM43.006,54.908c0,0.519 -0.501,1.197 -0.898,1.508c-0.818,0.641 -1.636,1.288 -2.448,1.935c-0.324,0.263 -0.91,0.825 -1.337,0.825l-0.006,0l-0.006,0c-0.428,0 -1.014,-0.562 -1.337,-0.825c-0.812,-0.647 -1.631,-1.294 -2.449,-1.935c-0.549,-0.434 -0.897,-1.038 -0.897,-1.734c0,-0.104 0.091,-0.195 0.195,-0.195l8.988,0c0.232,0 0.195,0.268 0.195,0.421ZM43.787,54.682c0,-0.537 -0.439,-0.977 -0.976,-0.977l-8.988,0c-0.537,0 -0.977,0.44 -0.977,0.977l0,6.643c0,0.537 0.44,0.977 0.977,0.977l8.988,0c0.537,0 0.976,-0.44 0.976,-0.977l0,-6.643Z" style="fill:#323232;fill-rule:nonzero;"/></g><g><path d="M125.621,118.957l0,-0.533l-2.04,0l0,-1.097l1.73,0l0,-0.534l-1.73,0l0,-1.085l1.984,0l0,-0.533l-2.554,0l0,3.782l2.61,0Z" style="fill:#323232;fill-rule:nonzero;"/><path d="M128.25,118.957l0.608,0l-1.036,-1.475l1.017,-1.445l-0.626,0l-0.62,0.862c-0.05,0.074 -0.112,0.149 -0.168,0.254c-0.062,-0.105 -0.117,-0.18 -0.173,-0.254l-0.614,-0.868l-0.626,0l1.017,1.451l-1.042,1.475l0.614,0l0.651,-0.886c0.056,-0.075 0.111,-0.149 0.173,-0.255c0.056,0.106 0.118,0.18 0.168,0.255l0.657,0.886Z" style="fill:#323232;fill-rule:nonzero;"/><path d="M131.518,118.219c-0.366,0.242 -0.627,0.317 -0.986,0.317c-0.533,0 -0.881,-0.403 -0.881,-1.023c0,-0.639 0.36,-1.067 0.899,-1.067c0.211,0 0.552,0.037 0.868,0.192l0.193,-0.378c-0.348,-0.204 -0.744,-0.285 -1.067,-0.285c-0.868,0 -1.444,0.614 -1.444,1.538c0,0.899 0.545,1.5 1.357,1.5c0.527,0 0.837,-0.099 1.265,-0.422l-0.204,-0.372Z" style="fill:#323232;fill-rule:nonzero;"/><path d="M134.556,118.207c-0.372,0.26 -0.67,0.36 -1.061,0.36c-0.483,0 -0.837,-0.255 -0.886,-0.918l2.17,0c0.018,-0.112 0.018,-0.174 0.018,-0.254c-0.018,-0.912 -0.489,-1.42 -1.302,-1.42c-0.812,0 -1.419,0.465 -1.419,1.544c0,1.048 0.595,1.494 1.395,1.494c0.527,0 0.886,-0.124 1.289,-0.446l-0.204,-0.36ZM132.621,117.215c0.081,-0.564 0.434,-0.787 0.874,-0.787c0.478,0 0.763,0.272 0.806,0.787l-1.68,0Z" style="fill:#323232;fill-rule:nonzero;"/><rect x="135.448" y="114.909" width="0.558" height="4.049" style="fill:#323232;fill-rule:nonzero;"/><path d="M127.511,110.855c0,0.11 -0.085,0.195 -0.195,0.195l-1.951,0c-0.11,0 -0.195,-0.085 -0.195,-0.195l0,-1.17c0,-0.11 0.085,-0.196 0.195,-0.196l1.951,0c0.11,0 0.195,0.086 0.195,0.196l0,1.17ZM127.511,108.514c0,0.11 -0.085,0.195 -0.195,0.195l-1.951,0c-0.11,0 -0.195,-0.085 -0.195,-0.195l0,-1.171c0,-0.109 0.085,-0.195 0.195,-0.195l1.951,0c0.11,0 0.195,0.086 0.195,0.195l0,1.171ZM130.633,110.855c0,0.11 -0.086,0.195 -0.195,0.195l-1.951,0c-0.11,0 -0.195,-0.085 -0.195,-0.195l0,-1.17c0,-0.11 0.085,-0.196 0.195,-0.196l1.951,0c0.109,0 0.195,0.086 0.195,0.196l0,1.17ZM127.511,106.173c0,0.11 -0.085,0.195 -0.195,0.195l-1.951,0c-0.11,0 -0.195,-0.085 -0.195,-0.195l0,-1.171c0,-0.109 0.085,-0.195 0.195,-0.195l1.951,0c0.11,0 0.195,0.086 0.195,0.195l0,1.171ZM130.633,108.514c0,0.11 -0.086,0.195 -0.195,0.195l-1.951,0c-0.11,0 -0.195,-0.085 -0.195,-0.195l0,-1.171c0,-0.109 0.085,-0.195 0.195,-0.195l1.951,0c0.109,0 0.195,0.086 0.195,0.195l0,1.171ZM133.754,110.855c0,0.11 -0.085,0.195 -0.195,0.195l-1.951,0c-0.109,0 -0.195,-0.085 -0.195,-0.195l0,-1.17c0,-0.11 0.086,-0.196 0.195,-0.196l1.951,0c0.11,0 0.195,0.086 0.195,0.196l0,1.17ZM130.633,106.173c0,0.11 -0.086,0.195 -0.195,0.195l-1.951,0c-0.11,0 -0.195,-0.085 -0.195,-0.195l0,-1.171c0,-0.109 0.085,-0.195 0.195,-0.195l1.951,0c0.109,0 0.195,0.086 0.195,0.195l0,1.171ZM133.754,108.514c0,0.11 -0.085,0.195 -0.195,0.195l-1.951,0c-0.109,0 -0.195,-0.085 -0.195,-0.195l0,-1.171c0,-0.109 0.086,-0.195 0.195,-0.195l1.951,0c0.11,0 0.195,0.086 0.195,0.195l0,1.171ZM133.754,106.173c0,0.11 -0.085,0.195 -0.195,0.195l-1.951,0c-0.109,0 -0.195,-0.085 -0.195,-0.195l0,-1.171c0,-0.109 0.086,-0.195 0.195,-0.195l1.951,0c0.11,0 0.195,0.086 0.195,0.195l0,1.171ZM134.535,104.222c0,-0.537 -0.439,-0.976 -0.976,-0.976l-8.194,0c-0.536,0 -0.975,0.439 -0.975,0.976l0,6.633c0,0.537 0.439,0.976 0.975,0.976l8.194,0c0.537,0 0.976,-0.439 0.976,-0.976l0,-6.633Z" style="fill:#323232;fill-rule:nonzero;"/></g><g><g><path d="M40.246,102.979l-1.905,-1.905c-0.226,-0.226 -0.678,-0.415 -1.001,-0.415l-5.471,0c-0.323,0 -0.586,0.262 -0.586,0.586l0,9.769c0,0.324 0.263,0.586 0.586,0.586l8.206,0c0.324,0 0.586,-0.262 0.586,-0.586l0,-7.034c0,-0.323 -0.189,-0.775 -0.415,-1.001ZM37.535,101.489c0.104,0.037 0.208,0.092 0.251,0.135l1.911,1.911c0.042,0.042 0.097,0.146 0.134,0.25l-2.296,0l0,-2.296ZM39.88,110.819l-7.815,0l0,-9.379l4.689,0l0,2.54c0,0.324 0.262,0.586 0.586,0.586l2.54,0l0,6.253ZM33.628,105.543l0,0.391c0,0.11 0.085,0.196 0.195,0.196l4.298,0c0.11,0 0.196,-0.086 0.196,-0.196l0,-0.391c0,-0.11 -0.086,-0.195 -0.196,-0.195l-4.298,0c-0.11,0 -0.195,0.085 -0.195,0.195ZM38.121,106.911l-4.298,0c-0.11,0 -0.195,0.086 -0.195,0.195l0,0.391c0,0.11 0.085,0.196 0.195,0.196l4.298,0c0.11,0 0.196,-0.086 0.196,-0.196l0,-0.391c0,-0.109 -0.086,-0.195 -0.196,-0.195ZM38.121,108.474l-4.298,0c-0.11,0 -0.195,0.086 -0.195,0.195l0,0.391c0,0.11 0.085,0.196 0.195,0.196l4.298,0c0.11,0 0.196,-0.086 0.196,-0.196l0,-0.391c0,-0.109 -0.086,-0.195 -0.196,-0.195Z" style="fill:#323232;fill-rule:nonzero;"/><g><rect x="35.972" y="101.913" width="9.378" height="10.941" style="fill:#efefef;"/><path d="M44.935,104.234l-1.905,-1.905c-0.226,-0.226 -0.677,-0.416 -1.001,-0.416l-5.471,0c-0.323,0 -0.586,0.263 -0.586,0.587l0,9.769c0,0.323 0.263,0.586 0.586,0.586l8.206,0c0.324,0 0.586,-0.263 0.586,-0.586l0,-7.034c0,-0.324 -0.189,-0.776 -0.415,-1.001ZM42.224,102.744c0.104,0.036 0.208,0.091 0.251,0.134l1.911,1.911c0.042,0.043 0.097,0.147 0.134,0.25l-2.296,0l0,-2.295ZM44.569,112.073l-7.815,0l0,-9.378l4.689,0l0,2.54c0,0.323 0.262,0.586 0.586,0.586l2.54,0l0,6.252ZM38.317,106.798l0,0.391c0,0.11 0.085,0.195 0.195,0.195l4.299,0c0.109,0 0.195,-0.085 0.195,-0.195l0,-0.391c0,-0.11 -0.086,-0.195 -0.195,-0.195l-4.299,0c-0.11,0 -0.195,0.085 -0.195,0.195ZM42.811,108.166l-4.299,0c-0.11,0 -0.195,0.085 -0.195,0.195l0,0.391c0,0.11 0.085,0.195 0.195,0.195l4.299,0c0.109,0 0.195,-0.085 0.195,-0.195l0,-0.391c0,-0.11 -0.086,-0.195 -0.195,-0.195ZM42.811,109.729l-4.299,0c-0.11,0 -0.195,0.085 -0.195,0.195l0,0.391c0,0.11 0.085,0.195 0.195,0.195l4.299,0c0.109,0 0.195,-0.085 0.195,-0.195l0,-0.391c0,-0.11 -0.086,-0.195 -0.195,-0.195Z" style="fill:#323232;fill-rule:nonzero;"/></g></g><path d="M33.323,118.733l0,-0.546l-1.854,0l0,-3.236l-0.571,0l0,3.782l2.425,0Z" style="fill:#323232;fill-rule:nonzero;"/><path d="M33.843,114.957c0,0.198 0.155,0.31 0.335,0.31c0.18,0 0.335,-0.112 0.335,-0.31c0,-0.205 -0.155,-0.31 -0.335,-0.31c-0.18,0 -0.335,0.105 -0.335,0.31ZM34.463,118.733l0,-2.927l-0.558,0l0,2.927l0.558,0Z" style="fill:#323232;fill-rule:nonzero;"/><path d="M37.278,116.005c-0.378,-0.161 -0.744,-0.261 -1.091,-0.261c-0.657,0 -1.023,0.298 -1.023,0.831c0,0.478 0.298,0.645 0.874,0.825c0.552,0.173 0.806,0.186 0.806,0.558c0,0.242 -0.217,0.366 -0.539,0.366c-0.447,0 -0.707,-0.118 -1.042,-0.354l-0.235,0.391c0.378,0.279 0.818,0.428 1.283,0.428c0.645,0 1.054,-0.317 1.054,-0.837c0,-0.602 -0.316,-0.738 -1.029,-0.968c-0.385,-0.124 -0.651,-0.167 -0.651,-0.427c0,-0.236 0.173,-0.366 0.49,-0.366c0.272,0 0.607,0.105 0.954,0.235l0.149,-0.421Z" style="fill:#323232;fill-rule:nonzero;"/><path d="M39.548,118.212c-0.218,0.031 -0.317,0.031 -0.435,0.031c-0.353,0 -0.502,-0.087 -0.502,-0.484l0,-1.481l0.868,0l0,-0.472l-0.868,0l0,-0.731l-0.558,0l0,0.731l-0.44,0l0,0.472l0.44,0l0,1.5c0,0.688 0.254,0.98 0.874,0.98c0.199,0 0.422,-0.044 0.683,-0.137l-0.062,-0.409Z" style="fill:#323232;fill-rule:nonzero;"/><path d="M42.362,117.983c-0.372,0.26 -0.669,0.359 -1.06,0.359c-0.483,0 -0.837,-0.254 -0.886,-0.917l2.17,0c0.018,-0.112 0.018,-0.174 0.018,-0.255c-0.018,-0.911 -0.49,-1.419 -1.302,-1.419c-0.812,0 -1.42,0.465 -1.42,1.543c0,1.048 0.596,1.495 1.395,1.495c0.527,0 0.887,-0.124 1.29,-0.447l-0.205,-0.359ZM40.428,116.991c0.081,-0.565 0.434,-0.788 0.874,-0.788c0.478,0 0.763,0.273 0.806,0.788l-1.68,0Z" style="fill:#323232;fill-rule:nonzero;"/><path d="M43.801,115.806l-0.558,0l0,2.927l0.558,0l0,-1.935c0.285,-0.328 0.607,-0.52 0.967,-0.52c0.446,0 0.521,0.229 0.521,0.762l0,1.693l0.558,0l0,-1.829c0,-0.794 -0.31,-1.147 -0.974,-1.147c-0.434,0 -0.75,0.186 -1.072,0.477l0,-0.428Z" style="fill:#323232;fill-rule:nonzero;"/></g><g><path d="M81.289,135.633c0,0.433 -0.348,0.781 -0.782,0.781c-0.433,0 -0.782,-0.348 -0.782,-0.781c0,-0.434 0.349,-0.782 0.782,-0.782c0.434,0 0.782,0.348 0.782,0.782ZM83.633,135.633c0,0.433 -0.348,0.781 -0.781,0.781c-0.434,0 -0.782,-0.348 -0.782,-0.781c0,-0.434 0.348,-0.782 0.782,-0.782c0.433,0 0.781,0.348 0.781,0.782ZM81.289,133.288c0,0.434 -0.348,0.782 -0.782,0.782c-0.433,0 -0.782,-0.348 -0.782,-0.782c0,-0.433 0.349,-0.781 0.782,-0.781c0.434,0 0.782,0.348 0.782,0.781ZM85.978,135.633c0,0.433 -0.348,0.781 -0.782,0.781c-0.433,0 -0.781,-0.348 -0.781,-0.781c0,-0.434 0.348,-0.782 0.781,-0.782c0.434,0 0.782,0.348 0.782,0.782ZM83.633,133.288c0,0.434 -0.348,0.782 -0.781,0.782c-0.434,0 -0.782,-0.348 -0.782,-0.782c0,-0.433 0.348,-0.781 0.782,-0.781c0.433,0 0.781,0.348 0.781,0.781ZM81.289,130.944c0,0.433 -0.348,0.781 -0.782,0.781c-0.433,0 -0.782,-0.348 -0.782,-0.781c0,-0.434 0.349,-0.782 0.782,-0.782c0.434,0 0.782,0.348 0.782,0.782ZM85.978,133.288c0,0.434 -0.348,0.782 -0.782,0.782c-0.433,0 -0.781,-0.348 -0.781,-0.782c0,-0.433 0.348,-0.781 0.781,-0.781c0.434,0 0.782,0.348 0.782,0.781ZM83.633,130.944c0,0.433 -0.348,0.781 -0.781,0.781c-0.434,0 -0.782,-0.348 -0.782,-0.781c0,-0.434 0.348,-0.782 0.782,-0.782c0.433,0 0.781,0.348 0.781,0.782ZM88.322,135.633c0,0.427 -0.354,0.781 -0.781,0.781c-0.428,0 -0.782,-0.354 -0.782,-0.781l0,-2.345c0,-0.427 0.354,-0.781 0.782,-0.781c0.427,0 0.781,0.354 0.781,0.781l0,2.345ZM85.978,130.944c0,0.433 -0.348,0.781 -0.782,0.781c-0.433,0 -0.781,-0.348 -0.781,-0.781c0,-0.434 0.348,-0.782 0.781,-0.782c0.434,0 0.782,0.348 0.782,0.782ZM88.322,128.99c0,0.214 -0.177,0.391 -0.391,0.391l-7.815,0c-0.213,0 -0.391,-0.177 -0.391,-0.391l0,-1.563c0,-0.214 0.178,-0.391 0.391,-0.391l7.815,0c0.214,0 0.391,0.177 0.391,0.391l0,1.563ZM88.322,130.944c0,0.433 -0.348,0.781 -0.781,0.781c-0.434,0 -0.782,-0.348 -0.782,-0.781c0,-0.434 0.348,-0.782 0.782,-0.782c0.433,0 0.781,0.348 0.781,0.782ZM89.104,127.036c0,-0.427 -0.354,-0.781 -0.782,-0.781l-8.597,0c-0.427,0 -0.781,0.354 -0.781,0.781l0,9.378c0,0.428 0.354,0.782 0.781,0.782l8.597,0c0.428,0 0.782,-0.354 0.782,-0.782l0,-9.378Z" style="fill:#323232;fill-rule:nonzero;"/><path d="M76.581,143.562l-1.011,-1.222c0.571,-0.173 0.924,-0.613 0.924,-1.209c0,-0.837 -0.558,-1.308 -1.55,-1.308l-1.401,0l0,3.782l0.57,0l0,-1.19l0.881,0l0.961,1.19l0.626,0l0,-0.043ZM74.113,141.882l0,-1.526l0.837,0c0.614,0.007 0.961,0.286 0.961,0.775c0,0.478 -0.347,0.751 -0.961,0.751l-0.837,0Z" style="fill:#323232;fill-rule:nonzero;"/><path d="M79.334,142.855c-0.372,0.26 -0.67,0.36 -1.06,0.36c-0.484,0 -0.837,-0.255 -0.887,-0.918l2.17,0c0.019,-0.112 0.019,-0.174 0.019,-0.254c-0.019,-0.912 -0.49,-1.42 -1.302,-1.42c-0.813,0 -1.42,0.465 -1.42,1.544c0,1.048 0.595,1.494 1.395,1.494c0.527,0 0.886,-0.124 1.289,-0.446l-0.204,-0.36ZM77.399,141.863c0.081,-0.564 0.434,-0.787 0.875,-0.787c0.477,0 0.762,0.272 0.806,0.787l-1.681,0Z" style="fill:#323232;fill-rule:nonzero;"/><path d="M82.428,142.867c-0.366,0.242 -0.627,0.317 -0.986,0.317c-0.533,0 -0.881,-0.403 -0.881,-1.023c0,-0.639 0.36,-1.067 0.899,-1.067c0.211,0 0.552,0.037 0.868,0.192l0.193,-0.378c-0.348,-0.204 -0.744,-0.285 -1.067,-0.285c-0.868,0 -1.444,0.614 -1.444,1.538c0,0.899 0.545,1.5 1.357,1.5c0.527,0 0.837,-0.099 1.265,-0.422l-0.204,-0.372Z" style="fill:#323232;fill-rule:nonzero;"/><path d="M83.748,139.557l-0.558,0l0,4.048l0.558,0l0,-1.891c0.292,-0.335 0.608,-0.539 0.967,-0.539c0.447,0 0.521,0.235 0.521,0.769l0,1.661l0.558,0l0,-1.829c0,-0.793 -0.248,-1.147 -0.911,-1.147c-0.44,0 -0.806,0.192 -1.135,0.515l0,-1.587Z" style="fill:#323232;fill-rule:nonzero;"/><path d="M87.177,140.679l-0.558,0l0,2.926l0.558,0l0,-1.934c0.285,-0.329 0.607,-0.521 0.967,-0.521c0.446,0 0.521,0.229 0.521,0.763l0,1.692l0.558,0l0,-1.829c0,-0.793 -0.31,-1.147 -0.974,-1.147c-0.434,0 -0.75,0.186 -1.072,0.478l0,-0.428Z" style="fill:#323232;fill-rule:nonzero;"/><path d="M92.31,142.855c-0.372,0.26 -0.669,0.36 -1.06,0.36c-0.483,0 -0.837,-0.255 -0.886,-0.918l2.17,0c0.018,-0.112 0.018,-0.174 0.018,-0.254c-0.018,-0.912 -0.49,-1.42 -1.302,-1.42c-0.812,0 -1.42,0.465 -1.42,1.544c0,1.048 0.596,1.494 1.395,1.494c0.527,0 0.887,-0.124 1.29,-0.446l-0.205,-0.36ZM90.376,141.863c0.081,-0.564 0.434,-0.787 0.874,-0.787c0.478,0 0.763,0.272 0.806,0.787l-1.68,0Z" style="fill:#323232;fill-rule:nonzero;"/><path d="M93.749,140.679l-0.558,0l0,2.926l0.558,0l0,-1.686c0.149,-0.465 0.459,-0.732 0.855,-0.732c0.106,0 0.205,0 0.354,0.013l0.037,-0.552c-0.167,-0.019 -0.267,-0.019 -0.372,-0.019c-0.391,0 -0.719,0.254 -0.874,0.62l0,-0.57Z" style="fill:#323232;fill-rule:nonzero;"/></g><path d="M50.873,67.637l-0.629,1.227l-0.897,-2.784l2.783,-0.896l-0.629,1.227l16.883,8.656l0.629,-1.226l0.897,2.783l-2.783,0.896l0.629,-1.226l-16.883,-8.657Z" style="fill:#000;"/><path d="M83.375,47.463l-1.378,0l2.067,-2.068l2.068,2.068l-1.378,0l0,18.773l1.378,0l-2.068,2.068l-2.067,-2.068l1.378,0l0,-18.773Z" style="fill:#000;"/><path d="M115.697,65.229l-0.689,-1.194l2.824,0.757l-0.757,2.824l-0.689,-1.193l-16.448,9.496l0.689,1.194l-2.825,-0.757l0.757,-2.824l0.689,1.193l16.449,-9.496Z" style="fill:#000;"/><path d="M116.961,101.155l0.654,-1.213l0.838,2.801l-2.801,0.839l0.654,-1.214l-16.706,-9.011l-0.654,1.214l-0.838,-2.802l2.801,-0.838l-0.655,1.213l16.707,9.011Z" style="fill:#000;"/><path d="M84.754,121.048l1.378,0l-2.068,2.068l-2.067,-2.068l1.378,0l0,-18.722l-1.378,0l2.067,-2.068l2.068,2.068l-1.378,0l0,18.722Z" style="fill:#000;"/><path d="M52.107,103.256l0.689,1.193l-2.824,-0.757l0.757,-2.824l0.689,1.194l16.452,-9.499l-0.689,-1.194l2.824,0.757l-0.757,2.825l-0.689,-1.194l-16.452,9.499Z" style="fill:#000;"/><g><path d="M93.234,90.764c0,-2.943 -0.69,-7.463 -4.506,-7.463c-0.404,0 -2.111,1.81 -4.664,1.81c-2.552,0 -4.259,-1.81 -4.663,-1.81c-3.816,0 -4.506,4.52 -4.506,7.463c0,2.11 1.406,3.374 3.477,3.374l11.385,0c2.071,0 3.477,-1.264 3.477,-3.374ZM89.066,79.133c0,-2.762 -2.24,-5.002 -5.002,-5.002c-2.761,0 -5.001,2.24 -5.001,5.002c0,2.761 2.24,5.002 5.001,5.002c2.762,0 5.002,-2.241 5.002,-5.002Z" style="fill:#323232;fill-rule:nonzero;"/></g></g></svg>