<?xml version="1.0" standalone="no"?><!DOCTYPE svg PUBLIC "-//W3C//DTD SVG 1.1//EN" "http://www.w3.org/Graphics/SVG/1.1/DTD/svg11.dtd"><svg width="100%" height="100%" viewBox="0 0 238 238" version="1.1" xmlns="http://www.w3.org/2000/svg" xmlns:xlink="http://www.w3.org/1999/xlink" xml:space="preserve" style="fill-rule:evenodd;clip-rule:evenodd;stroke-linejoin:round;stroke-miterlimit:1.41421;"><g><circle cx="118.58" cy="118.488" r="118.431" style="fill:#efefef;"/><g><text x="88.302px" y="55.944px" style="font-family:'Gentona-Book';font-size:8.739px;fill:#323232;">Br<tspan x="96.386px 100.843px 105.615px 109.854px 114.625px 119.117px 123.889px 125.821px 130.61px " y="55.944px 55.944px 55.944px 55.944px 55.944px 55.944px 55.944px 55.944px 55.944px ">anchenlös</tspan>un<tspan x="144.051px " y="55.944px ">g</tspan></text><text x="110.318px" y="46.003px" style="font-family:'FontAwesome';font-size:15.422px;fill:#323232;"></text></g><g><text x="173.701px" y="98.324px" style="font-family:'Gentona-Book';font-size:8.739px;fill:#323232;">C<tspan x="178.953px " y="98.324px ">R</tspan>M</text><text x="174.309px" y="87.798px" style="font-family:'FontAwesome';font-size:15.422px;fill:#323232;"></text></g><g><text x="43.831px" y="97.175px" style="font-family:'Gentona-Book';font-size:8.739px;fill:#323232;">E<tspan x="48.629px 55.891px " y="97.175px 97.175px ">ma</tspan>il</text><text x="46.384px" y="86.612px" style="font-family:'FontAwesome';font-size:15.422px;fill:#323232;"></text></g><g><text x="172.744px" y="167.573px" style="font-family:'Gentona-Book';font-size:8.739px;fill:#323232;">Ex<tspan x="181.693px 185.888px " y="167.573px 167.573px ">ce</tspan>l</text><text x="175.422px" y="157.528px" style="font-family:'FontAwesome';font-size:15.4px;fill:#323232;"></text></g><g><g><text x="44.181px" y="155px" style="font-family:'FontAwesome';font-size:15.422px;fill:#323232;"></text><g><rect x="50.79" y="143.549" width="13.219" height="15.422" style="fill:#efefef;"/><text x="50.79px" y="156.768px" style="font-family:'FontAwesome';font-size:15.422px;fill:#323232;"></text></g></g><text x="42.904px" y="167.257px" style="font-family:'Gentona-Book';font-size:8.739px;fill:#323232;">Li<tspan x="49.206px 52.946px 55.935px " y="167.257px 167.257px 167.257px ">ste</tspan>n</text></g><g><text x="111.362px" y="191.079px" style="font-family:'FontAwesome';font-size:15.422px;fill:#323232;"></text><text x="103.015px" y="202.317px" style="font-family:'Gentona-Book';font-size:8.739px;fill:#323232;">R<tspan x="108.049px 112.497px 116.736px 121.569px 126.341px 130.833px " y="202.317px 202.317px 202.317px 202.317px 202.317px 202.317px ">echner</tspan></text></g><path d="M71.794,95.234l-0.887,1.729l-1.264,-3.923l3.924,-1.264l-0.887,1.729l23.798,12.202l0.886,-1.729l1.264,3.923l-3.923,1.264l0.886,-1.729l-23.797,-12.202Z" style="fill:#000;"/><path d="M117.609,66.797l-1.943,0l2.914,-2.915l2.914,2.915l-1.943,0l0,26.462l1.943,0l-2.914,2.915l-2.914,-2.915l1.943,0l0,-26.462Z" style="fill:#000;"/><path d="M163.168,91.839l-0.971,-1.683l3.981,1.067l-1.067,3.981l-0.971,-1.682l-23.186,13.386l0.972,1.683l-3.981,-1.067l1.066,-3.981l0.972,1.682l23.185,-13.386Z" style="fill:#000;"/><path d="M164.95,142.48l0.922,-1.71l1.182,3.949l-3.949,1.181l0.922,-1.71l-23.548,-12.702l-0.923,1.71l-1.181,-3.948l3.948,-1.182l-0.922,1.71l23.549,12.702Z" style="fill:#000;"/><path d="M119.551,170.52l1.943,0l-2.914,2.915l-2.914,-2.915l1.943,0l0,-26.39l-1.943,0l2.914,-2.914l2.914,2.914l-1.943,0l0,26.39Z" style="fill:#000;"/><path d="M73.534,145.441l0.971,1.682l-3.981,-1.066l1.067,-3.982l0.971,1.683l23.19,-13.389l-0.971,-1.683l3.981,1.067l-1.067,3.981l-0.971,-1.682l-23.19,13.389Z" style="fill:#000;"/><g><text x="105.655px" y="130.239px" style="font-family:'FontAwesome';font-size:32.901px;fill:#323232;"></text></g></g></svg>