<?xml version="1.0" standalone="no"?><!DOCTYPE svg PUBLIC "-//W3C//DTD SVG 1.1//EN" "http://www.w3.org/Graphics/SVG/1.1/DTD/svg11.dtd"><svg width="100%" height="100%" viewBox="0 0 238 237" version="1.1" xmlns="http://www.w3.org/2000/svg" xmlns:xlink="http://www.w3.org/1999/xlink" xml:space="preserve" style="fill-rule:evenodd;clip-rule:evenodd;stroke-linejoin:round;stroke-miterlimit:1.41421;"><g><circle cx="118.481" cy="118.445" r="118.431" style="fill:#efefef;"/><g><text x="161.563px" y="131.621px" style="font-family:'Gentona-Book';font-size:8.739px;fill:#323232;">Br<tspan x="169.647px 174.104px 178.876px 183.115px 187.886px 192.378px 197.15px 199.082px 203.871px " y="131.621px 131.621px 131.621px 131.621px 131.621px 131.621px 131.621px 131.621px 131.621px ">anchenlös</tspan>un<tspan x="217.312px " y="131.621px ">g</tspan></text><text x="183.579px" y="121.68px" style="font-family:'FontAwesome';font-size:15.422px;fill:#323232;"></text></g><g><text x="167.692px" y="75.365px" style="font-family:'Gentona-Book';font-size:8.739px;fill:#323232;">C<tspan x="172.944px " y="75.365px ">R</tspan>M</text><text x="168.301px" y="64.839px" style="font-family:'FontAwesome';font-size:15.422px;fill:#323232;"></text></g><g><text x="166.298px" y="185.518px" style="font-family:'Gentona-Book';font-size:8.739px;fill:#323232;">E<tspan x="171.096px 178.358px " y="185.518px 185.518px ">ma</tspan>il</text><text x="168.851px" y="174.954px" style="font-family:'FontAwesome';font-size:15.422px;fill:#323232;"></text></g><path d="M66.361,119.623l0,1.943l-2.915,-2.914l2.915,-2.915l0,1.943l26.743,0l0,-1.943l2.915,2.915l-2.915,2.914l0,-1.943l-26.743,0Z" style="fill:#000;"/><path d="M156.588,78.787l-1.374,-1.374l4.122,0l0,4.122l-1.374,-1.374l-16.684,16.684l1.374,1.374l-4.121,0l0,-4.122l1.374,1.374l16.683,-16.684Z" style="fill:#000;"/><path d="M173.648,117.749l0,-1.943l2.915,2.915l-2.915,2.914l0,-1.943l-27.651,0l0,1.943l-2.914,-2.914l2.914,-2.915l0,1.943l27.651,0Z" style="fill:#000;"/><path d="M160.023,159.129l1.374,-1.374l0,4.122l-4.122,0l1.374,-1.374l-19.251,-19.251l-1.374,1.374l0,-4.122l4.122,0l-1.374,1.374l19.251,19.251Z" style="fill:#000;"/><g><text x="31.709px" y="130.196px" style="font-family:'FontAwesome';font-size:32.901px;fill:#323232;"></text></g><g><path d="M133.55,100.369c0,-1.277 -1.037,-2.313 -2.314,-2.313l-26.315,0c-1.277,0 -2.314,1.036 -2.314,2.313l0,36.152c0,1.277 1.037,2.314 2.314,2.314l26.315,0c1.277,0 2.314,-1.037 2.314,-2.314l0,-36.152Z" style="fill:#00a0dd;"/><path d="M131.266,98.056l0.03,0l0.029,0.001l0.03,0.002l0.029,0.001l0.03,0.002l0.029,0.003l0.029,0.002l0.029,0.004l0.029,0.003l0.029,0.004l0.029,0.004l0.029,0.005l0.028,0.005l0.029,0.005l0.028,0.006l0.028,0.006l0.028,0.006l0.028,0.006l0.028,0.007l0.028,0.008l0.027,0.007l0.027,0.008l0.028,0.009l0.027,0.008l0.027,0.009l0.026,0.009l0.027,0.01l0.027,0.01l0.026,0.01l0.026,0.011l0.026,0.01l0.026,0.012l0.026,0.011l0.025,0.012l0.026,0.012l0.025,0.012l0.025,0.013l0.025,0.013l0.024,0.013l0.025,0.013l0.024,0.014l0.024,0.014l0.024,0.015l0.024,0.014l0.024,0.015l0.023,0.015l0.023,0.016l0.023,0.016l0.023,0.016l0.023,0.016l0.022,0.016l0.022,0.017l0.022,0.017l0.022,0.018l0.021,0.017l0.022,0.018l0.021,0.018l0.021,0.018l0.02,0.019l0.021,0.019l0.02,0.019l0.02,0.019l0.02,0.02l0.019,0.019l0.02,0.02l0.019,0.02l0.018,0.021l0.019,0.021l0.018,0.02l0.018,0.022l0.018,0.021l0.018,0.021l0.017,0.022l0.017,0.022l0.017,0.022l0.016,0.023l0.017,0.022l0.016,0.023l0.015,0.023l0.016,0.023l0.015,0.024l0.015,0.023l0.015,0.024l0.014,0.024l0.014,0.024l0.014,0.024l0.013,0.025l0.014,0.024l0.012,0.025l0.013,0.025l0.012,0.026l0.012,0.025l0.012,0.025l0.012,0.026l0.011,0.026l0.011,0.026l0.01,0.026l0.01,0.027l0.01,0.026l0.01,0.027l0.009,0.027l0.009,0.026l0.009,0.028l0.008,0.027l0.008,0.027l0.008,0.028l0.007,0.027l0.007,0.028l0.006,0.028l0.007,0.028l0.006,0.028l0.005,0.029l0.006,0.028l0.004,0.028l0.005,0.029l0.004,0.029l0.004,0.029l0.004,0.029l0.003,0.029l0.003,0.029l0.002,0.029l0.002,0.03l0.002,0.029l0.001,0.03l0.001,0.03l0.001,0.029l0,0.03l0,36.152l0,0.03l-0.001,0.03l-0.001,0.03l-0.001,0.029l-0.002,0.03l-0.002,0.029l-0.002,0.03l-0.003,0.029l-0.003,0.029l-0.004,0.029l-0.004,0.029l-0.004,0.029l-0.005,0.028l-0.004,0.029l-0.006,0.028l-0.005,0.029l-0.006,0.028l-0.007,0.028l-0.006,0.028l-0.007,0.027l-0.007,0.028l-0.008,0.028l-0.008,0.027l-0.008,0.027l-0.009,0.027l-0.009,0.027l-0.009,0.027l-0.01,0.027l-0.01,0.026l-0.01,0.027l-0.01,0.026l-0.011,0.026l-0.011,0.026l-0.012,0.025l-0.012,0.026l-0.012,0.025l-0.012,0.025l-0.013,0.025l-0.012,0.025l-0.014,0.025l-0.013,0.024l-0.014,0.025l-0.014,0.024l-0.014,0.024l-0.015,0.024l-0.015,0.023l-0.015,0.024l-0.016,0.023l-0.015,0.023l-0.016,0.023l-0.017,0.022l-0.016,0.022l-0.017,0.023l-0.017,0.022l-0.017,0.021l-0.018,0.022l-0.018,0.021l-0.018,0.021l-0.018,0.021l-0.019,0.021l-0.018,0.02l-0.019,0.021l-0.02,0.019l-0.019,0.02l-0.02,0.02l-0.02,0.019l-0.02,0.019l-0.021,0.019l-0.02,0.018l-0.021,0.019l-0.021,0.018l-0.022,0.018l-0.021,0.017l-0.022,0.017l-0.022,0.018l-0.022,0.016l-0.022,0.017l-0.023,0.016l-0.023,0.016l-0.023,0.016l-0.023,0.015l-0.023,0.016l-0.024,0.014l-0.024,0.015l-0.024,0.014l-0.024,0.015l-0.024,0.013l-0.025,0.014l-0.024,0.013l-0.025,0.013l-0.025,0.013l-0.025,0.012l-0.026,0.012l-0.025,0.012l-0.026,0.011l-0.026,0.011l-0.026,0.011l-0.026,0.011l-0.026,0.01l-0.027,0.01l-0.027,0.009l-0.026,0.01l-0.027,0.009l-0.027,0.008l-0.028,0.008l-0.027,0.008l-0.027,0.008l-0.028,0.007l-0.028,0.007l-0.028,0.007l-0.028,0.006l-0.028,0.006l-0.028,0.006l-0.029,0.005l-0.028,0.005l-0.029,0.005l-0.029,0.004l-0.029,0.004l-0.029,0.003l-0.029,0.003l-0.029,0.003l-0.029,0.002l-0.03,0.003l-0.029,0.001l-0.03,0.002l-0.029,0l-0.03,0.001l-0.03,0l-26.315,0l-0.03,0l-0.03,-0.001l-0.029,0l-0.03,-0.002l-0.03,-0.001l-0.029,-0.003l-0.029,-0.002l-0.029,-0.003l-0.03,-0.003l-0.029,-0.003l-0.028,-0.004l-0.029,-0.004l-0.029,-0.005l-0.028,-0.005l-0.029,-0.005l-0.028,-0.006l-0.028,-0.006l-0.028,-0.006l-0.028,-0.007l-0.028,-0.007l-0.028,-0.007l-0.027,-0.008l-0.028,-0.008l-0.027,-0.008l-0.027,-0.008l-0.027,-0.009l-0.027,-0.01l-0.026,-0.009l-0.027,-0.01l-0.026,-0.01l-0.026,-0.011l-0.026,-0.011l-0.026,-0.011l-0.026,-0.011l-0.025,-0.012l-0.026,-0.012l-0.025,-0.012l-0.025,-0.013l-0.025,-0.013l-0.025,-0.013l-0.024,-0.014l-0.024,-0.013l-0.025,-0.015l-0.023,-0.014l-0.024,-0.015l-0.024,-0.014l-0.023,-0.016l-0.023,-0.015l-0.023,-0.016l-0.023,-0.016l-0.023,-0.016l-0.022,-0.017l-0.022,-0.016l-0.022,-0.018l-0.022,-0.017l-0.021,-0.017l-0.022,-0.018l-0.021,-0.018l-0.021,-0.019l-0.02,-0.018l-0.021,-0.019l-0.02,-0.019l-0.02,-0.019l-0.02,-0.02l-0.019,-0.02l-0.02,-0.019l-0.019,-0.021l-0.018,-0.02l-0.019,-0.021l-0.018,-0.021l-0.018,-0.021l-0.018,-0.021l-0.018,-0.022l-0.017,-0.021l-0.017,-0.022l-0.017,-0.023l-0.016,-0.022l-0.017,-0.022l-0.016,-0.023l-0.015,-0.023l-0.016,-0.023l-0.015,-0.024l-0.015,-0.023l-0.015,-0.024l-0.014,-0.024l-0.014,-0.024l-0.014,-0.025l-0.013,-0.024l-0.014,-0.025l-0.013,-0.025l-0.012,-0.025l-0.013,-0.025l-0.012,-0.025l-0.011,-0.026l-0.012,-0.025l-0.011,-0.026l-0.011,-0.026l-0.01,-0.026l-0.01,-0.027l-0.01,-0.026l-0.01,-0.027l-0.009,-0.027l-0.009,-0.027l-0.009,-0.027l-0.008,-0.027l-0.008,-0.027l-0.008,-0.028l-0.007,-0.028l-0.007,-0.027l-0.007,-0.028l-0.006,-0.028l-0.006,-0.028l-0.005,-0.029l-0.006,-0.028l-0.005,-0.029l-0.004,-0.028l-0.004,-0.029l-0.004,-0.029l-0.004,-0.029l-0.003,-0.029l-0.003,-0.029l-0.002,-0.03l-0.002,-0.029l-0.002,-0.03l-0.001,-0.029l-0.001,-0.03l-0.001,-0.03l0,-0.03l0,-36.152l0,-0.03l0.001,-0.029l0.001,-0.03l0.001,-0.03l0.002,-0.029l0.002,-0.03l0.002,-0.029l0.003,-0.029l0.003,-0.029l0.004,-0.029l0.004,-0.029l0.004,-0.029l0.004,-0.029l0.005,-0.028l0.006,-0.028l0.005,-0.029l0.006,-0.028l0.006,-0.028l0.007,-0.028l0.007,-0.028l0.007,-0.027l0.008,-0.028l0.008,-0.027l0.008,-0.027l0.009,-0.028l0.009,-0.026l0.009,-0.027l0.01,-0.027l0.01,-0.026l0.01,-0.027l0.01,-0.026l0.011,-0.026l0.011,-0.026l0.012,-0.026l0.011,-0.025l0.012,-0.025l0.013,-0.026l0.012,-0.025l0.013,-0.025l0.014,-0.024l0.013,-0.025l0.014,-0.024l0.014,-0.024l0.014,-0.024l0.015,-0.024l0.015,-0.023l0.015,-0.024l0.016,-0.023l0.015,-0.023l0.016,-0.023l0.017,-0.022l0.016,-0.023l0.017,-0.022l0.017,-0.022l0.017,-0.022l0.018,-0.021l0.018,-0.021l0.018,-0.022l0.018,-0.02l0.019,-0.021l0.018,-0.021l0.019,-0.02l0.02,-0.02l0.019,-0.019l0.02,-0.02l0.02,-0.019l0.02,-0.019l0.021,-0.019l0.02,-0.019l0.021,-0.018l0.021,-0.018l0.022,-0.018l0.021,-0.017l0.022,-0.018l0.022,-0.017l0.022,-0.017l0.022,-0.016l0.023,-0.016l0.023,-0.016l0.023,-0.016l0.023,-0.016l0.023,-0.015l0.024,-0.015l0.024,-0.014l0.023,-0.015l0.025,-0.014l0.024,-0.014l0.024,-0.013l0.025,-0.013l0.025,-0.013l0.025,-0.013l0.025,-0.012l0.026,-0.012l0.025,-0.012l0.026,-0.011l0.026,-0.012l0.026,-0.01l0.026,-0.011l0.026,-0.01l0.027,-0.01l0.026,-0.01l0.027,-0.009l0.027,-0.009l0.027,-0.008l0.027,-0.009l0.028,-0.008l0.027,-0.007l0.028,-0.008l0.028,-0.007l0.028,-0.006l0.028,-0.006l0.028,-0.006l0.028,-0.006l0.029,-0.005l0.028,-0.005l0.029,-0.005l0.029,-0.004l0.028,-0.004l0.029,-0.003l0.03,-0.004l0.029,-0.002l0.029,-0.003l0.029,-0.002l0.03,-0.001l0.03,-0.002l0.029,-0.001l0.03,0l0.03,0l26.315,0l0.03,0ZM105.607,101.056l0,34.779l24.943,0l0,-34.779l-24.943,0Z" style="fill:#00a2da;"/><g><text x="115.177px" y="134.038px" style="font-family:'FontAwesome';font-size:5.434px;fill:#fff;"></text><g><rect x="117.135" y="130.003" width="4.657" height="5.434" style="fill:#00a5df;"/><text x="117.135px" y="134.661px" style="font-family:'FontAwesome';font-size:5.434px;fill:#fff;"></text></g></g><text x="124.479px" y="134.863px" style="font-family:'FontAwesome';font-size:6px;fill:#fff;"></text><text x="106.49px" y="134.523px" style="font-family:'FontAwesome';font-size:6px;fill:#fff;"></text><text x="106.619px" y="114.611px" style="font-family:'Gentona-ExtraBoldDEMO';font-size:5px;fill:#fff;">Ent<tspan x="114.114px " y="114.611px ">e</tspan>rp<tspan x="121.609px 123.644px 124.974px " y="114.611px 114.611px 114.611px ">ris</tspan>e</text><text x="106.363px" y="109.424px" style="font-family:'Gentona-ExtraLight';font-size:10.796px;fill:#9adffe;">L<tspan x="112.045px 118.043px 123.924px " y="109.424px 109.424px 109.424px ">ean</tspan></text><text x="107.692px" y="123.032px" style="font-family:'Gentona-Bold';font-size:10.796px;fill:#9adffe;">A<tspan x="115.831px 122.462px " y="123.032px 123.032px ">pp</tspan></text></g></g></svg>