<?xml version="1.0" standalone="no"?><!DOCTYPE svg PUBLIC "-//W3C//DTD SVG 1.1//EN" "http://www.w3.org/Graphics/SVG/1.1/DTD/svg11.dtd"><svg width="100%" height="100%" viewBox="0 0 232 232" version="1.1" xmlns="http://www.w3.org/2000/svg" xmlns:xlink="http://www.w3.org/1999/xlink" xml:space="preserve" style="fill-rule:evenodd;clip-rule:evenodd;stroke-linejoin:round;stroke-miterlimit:1.41421;"><g><circle cx="115.988" cy="115.823" r="115.762" style="fill:#efefef;"/><g><path d="M158.817,123.491l0,5.211l1.854,0c1.494,0 2.195,-0.462 2.195,-1.453c0,-0.632 -0.393,-1.093 -1.179,-1.272c0.538,-0.163 0.837,-0.521 0.837,-1.051c0,-0.974 -0.623,-1.435 -1.956,-1.435l-1.751,0ZM159.603,124.225l0.965,0c0.829,0 1.213,0.24 1.213,0.761c0,0.427 -0.333,0.666 -0.914,0.666l-1.264,0l0,-1.427ZM159.603,126.378l1.264,0c0.76,0 1.187,0.299 1.187,0.829c0,0.512 -0.435,0.752 -1.366,0.752l-1.085,0l0,-1.581Z" style="fill:#323232;fill-rule:nonzero;"/><path d="M164.472,124.67l-0.769,0l0,4.032l0.769,0l0,-2.324c0.205,-0.641 0.632,-1.008 1.179,-1.008c0.145,0 0.282,0 0.487,0.017l0.051,-0.76c-0.231,-0.026 -0.367,-0.026 -0.513,-0.026c-0.538,0 -0.991,0.351 -1.204,0.855l0,-0.786Z" style="fill:#323232;fill-rule:nonzero;"/><path d="M166.847,125.49c0.589,-0.145 1.033,-0.214 1.384,-0.214c0.683,0 0.845,0.214 0.845,1c-0.376,-0.009 -0.606,-0.009 -1.076,-0.009c-1.128,0 -1.683,0.436 -1.683,1.29c0,0.871 0.461,1.222 1.367,1.222c0.623,0 1.033,-0.291 1.392,-0.581l0,0.504l0.769,0l0,-2.418c0,-1.187 -0.359,-1.691 -1.486,-1.691c-0.436,0 -0.863,0.068 -1.64,0.273l0.128,0.624ZM169.076,126.822l0,0.769c-0.307,0.342 -0.734,0.615 -1.17,0.615c-0.581,0 -0.88,-0.247 -0.88,-0.726c0,-0.521 0.35,-0.658 1.068,-0.658l0.982,0Z" style="fill:#323232;fill-rule:nonzero;"/><path d="M171.724,124.67l-0.768,0l0,4.032l0.768,0l0,-2.666c0.393,-0.452 0.838,-0.717 1.333,-0.717c0.615,0 0.718,0.316 0.718,1.051l0,2.332l0.768,0l0,-2.52c0,-1.094 -0.427,-1.581 -1.341,-1.581c-0.598,0 -1.033,0.257 -1.478,0.658l0,-0.589Z" style="fill:#323232;fill-rule:nonzero;"/><path d="M178.712,127.685c-0.504,0.333 -0.863,0.436 -1.358,0.436c-0.735,0 -1.213,-0.555 -1.213,-1.41c0,-0.88 0.495,-1.469 1.239,-1.469c0.29,0 0.76,0.051 1.195,0.265l0.265,-0.521c-0.478,-0.282 -1.025,-0.393 -1.469,-0.393c-1.196,0 -1.99,0.845 -1.99,2.118c0,1.239 0.751,2.068 1.87,2.068c0.726,0 1.154,-0.137 1.743,-0.581l-0.282,-0.513Z" style="fill:#323232;fill-rule:nonzero;"/><path d="M180.532,123.123l-0.769,0l0,5.579l0.769,0l0,-2.606c0.401,-0.461 0.837,-0.743 1.332,-0.743c0.615,0 0.718,0.325 0.718,1.059l0,2.29l0.769,0l0,-2.52c0,-1.094 -0.342,-1.581 -1.256,-1.581c-0.607,0 -1.111,0.265 -1.563,0.709l0,-2.187Z" style="fill:#323232;fill-rule:nonzero;"/><path d="M187.605,127.668c-0.513,0.359 -0.923,0.496 -1.461,0.496c-0.666,0 -1.153,-0.351 -1.222,-1.265l2.99,0c0.026,-0.154 0.026,-0.239 0.026,-0.35c-0.026,-1.256 -0.675,-1.956 -1.794,-1.956c-1.119,0 -1.956,0.64 -1.956,2.127c0,1.444 0.82,2.059 1.922,2.059c0.726,0 1.221,-0.171 1.777,-0.615l-0.282,-0.496ZM184.94,126.301c0.111,-0.777 0.598,-1.085 1.204,-1.085c0.658,0 1.051,0.376 1.111,1.085l-2.315,0Z" style="fill:#323232;fill-rule:nonzero;"/><path d="M189.587,124.67l-0.769,0l0,4.032l0.769,0l0,-2.666c0.393,-0.452 0.837,-0.717 1.332,-0.717c0.615,0 0.718,0.316 0.718,1.051l0,2.332l0.769,0l0,-2.52c0,-1.094 -0.427,-1.581 -1.342,-1.581c-0.597,0 -1.033,0.257 -1.477,0.658l0,-0.589Z" style="fill:#323232;fill-rule:nonzero;"/><rect x="193.482" y="123.123" width="0.769" height="5.578" style="fill:#323232;fill-rule:nonzero;"/><path d="M196.344,123.021c-0.239,0 -0.462,0.171 -0.462,0.461c0,0.282 0.223,0.444 0.462,0.444c0.273,0 0.47,-0.162 0.47,-0.444c0,-0.29 -0.197,-0.461 -0.47,-0.461ZM197.958,123.021c-0.265,0 -0.47,0.171 -0.47,0.461c0,0.282 0.205,0.444 0.47,0.444c0.248,0 0.47,-0.162 0.47,-0.444c0,-0.29 -0.222,-0.461 -0.47,-0.461ZM197.155,124.593c-1.213,0 -2.024,0.845 -2.024,2.118c0,1.239 0.803,2.068 2.016,2.068c1.221,0 2.033,-0.829 2.033,-2.068c0,-1.273 -0.812,-2.118 -2.025,-2.118ZM197.147,128.121c-0.761,0 -1.265,-0.564 -1.265,-1.41c0,-0.88 0.513,-1.46 1.273,-1.46c0.761,0 1.273,0.58 1.273,1.46c0,0.846 -0.512,1.41 -1.281,1.41Z" style="fill:#323232;fill-rule:nonzero;"/><path d="M202.802,124.943c-0.521,-0.222 -1.025,-0.359 -1.504,-0.359c-0.905,0 -1.409,0.41 -1.409,1.145c0,0.658 0.41,0.888 1.204,1.136c0.761,0.239 1.111,0.256 1.111,0.769c0,0.333 -0.299,0.504 -0.743,0.504c-0.615,0 -0.974,-0.162 -1.435,-0.487l-0.325,0.538c0.521,0.385 1.127,0.59 1.768,0.59c0.889,0 1.452,-0.436 1.452,-1.154c0,-0.828 -0.435,-1.016 -1.418,-1.332c-0.529,-0.171 -0.897,-0.231 -0.897,-0.59c0,-0.324 0.24,-0.504 0.675,-0.504c0.376,0 0.837,0.146 1.316,0.325l0.205,-0.581Z" style="fill:#323232;fill-rule:nonzero;"/><path d="M206.56,128.702l0.769,0l0,-4.032l-0.769,0l0,2.656c-0.316,0.385 -0.785,0.752 -1.264,0.752c-0.606,0 -0.794,-0.342 -0.794,-1.076l0,-2.332l-0.769,0l0,2.511c0,1.085 0.41,1.598 1.315,1.598c0.581,0 1.06,-0.291 1.512,-0.658l0,0.581Z" style="fill:#323232;fill-rule:nonzero;"/><path d="M209.294,124.67l-0.769,0l0,4.032l0.769,0l0,-2.666c0.393,-0.452 0.837,-0.717 1.333,-0.717c0.615,0 0.717,0.316 0.717,1.051l0,2.332l0.769,0l0,-2.52c0,-1.094 -0.427,-1.581 -1.341,-1.581c-0.598,0 -1.034,0.257 -1.478,0.658l0,-0.589Z" style="fill:#323232;fill-rule:nonzero;"/><path d="M216.82,124.67l-0.769,0l0,0.512c-0.401,-0.324 -0.922,-0.589 -1.503,-0.589c-0.974,0 -1.598,0.572 -1.598,2.05c0,1.324 0.743,1.879 1.666,1.879c0.675,0 1.042,-0.213 1.435,-0.606l0,0.171c0,0.973 -0.436,1.298 -1.17,1.298c-0.547,0 -1.068,-0.145 -1.47,-0.325l-0.213,0.581c0.47,0.265 1.093,0.427 1.777,0.427c1.136,0 1.845,-0.58 1.845,-1.981l0,-3.417ZM216.051,127.224c-0.325,0.359 -0.649,0.692 -1.187,0.692c-0.607,0 -1.154,-0.316 -1.154,-1.273c0,-1.051 0.436,-1.401 1.085,-1.401c0.487,0 0.846,0.256 1.256,0.683l0,1.299Z" style="fill:#323232;fill-rule:nonzero;"/><path d="M194.694,114.409c0,0.143 -0.127,0.269 -0.27,0.269l-13.459,0c-0.143,0 -0.27,-0.126 -0.27,-0.269l0,-6.999c0,-0.143 0.127,-0.269 0.27,-0.269l13.459,0c0.143,0 0.27,0.126 0.27,0.269l0,6.999ZM195.77,107.41c0,-0.74 -0.605,-1.346 -1.346,-1.346l-13.459,0c-0.741,0 -1.346,0.606 -1.346,1.346l0,9.153c0,0.74 0.605,1.346 1.346,1.346l4.576,0c0,0.731 -0.538,1.303 -0.538,1.615c0,0.294 0.244,0.538 0.538,0.538l4.307,0c0.295,0 0.538,-0.244 0.538,-0.538c0,-0.295 -0.538,-0.9 -0.538,-1.615l4.576,0c0.741,0 1.346,-0.606 1.346,-1.346l0,-9.153Z" style="fill:#323232;fill-rule:nonzero;"/></g><g><path d="M168.788,72.552c-0.547,0.342 -1.093,0.504 -1.811,0.504c-1.059,0 -1.683,-0.718 -1.683,-1.939c0,-1.29 0.607,-1.965 1.76,-1.965c0.504,0 1.076,0.103 1.58,0.316l0.248,-0.598c-0.504,-0.29 -1.221,-0.453 -1.854,-0.453c-1.623,0 -2.537,0.966 -2.537,2.7c0,1.708 0.914,2.674 2.452,2.674c0.854,0 1.563,-0.214 2.144,-0.633l-0.299,-0.606Z" style="fill:#323232;fill-rule:nonzero;"/><path d="M174.127,73.654l-1.392,-1.683c0.786,-0.239 1.273,-0.846 1.273,-1.666c0,-1.153 -0.769,-1.802 -2.136,-1.802l-1.931,0l0,5.211l0.786,0l0,-1.64l1.213,0l1.324,1.64l0.863,0l0,-0.06ZM170.727,71.339l0,-2.102l1.154,0c0.845,0.009 1.324,0.393 1.324,1.068c0,0.658 -0.479,1.034 -1.324,1.034l-1.154,0Z" style="fill:#323232;fill-rule:nonzero;"/><path d="M179.928,73.714l0.803,0l-0.188,-5.211l-0.957,0l-1.606,3.75c-0.051,0.111 -0.094,0.231 -0.12,0.316c-0.025,-0.085 -0.06,-0.205 -0.111,-0.316l-1.606,-3.75l-0.948,0l-0.188,5.211l0.795,0l0.119,-3.511l0,-0.265l1.632,3.776l0.623,0l1.64,-3.776l0,0.282l0.112,3.494Z" style="fill:#323232;fill-rule:nonzero;"/><path d="M179.76,58.848c0,0.143 -0.127,0.269 -0.27,0.269l-13.459,0c-0.143,0 -0.27,-0.126 -0.27,-0.269l0,-6.999c0,-0.143 0.127,-0.269 0.27,-0.269l13.459,0c0.143,0 0.27,0.126 0.27,0.269l0,6.999ZM180.836,51.849c0,-0.74 -0.605,-1.346 -1.346,-1.346l-13.459,0c-0.741,0 -1.346,0.606 -1.346,1.346l0,9.153c0,0.74 0.605,1.346 1.346,1.346l4.576,0c0,0.732 -0.538,1.304 -0.538,1.615c0,0.294 0.243,0.538 0.538,0.538l4.307,0c0.294,0 0.538,-0.244 0.538,-0.538c0,-0.294 -0.538,-0.9 -0.538,-1.615l4.576,0c0.741,0 1.346,-0.606 1.346,-1.346l0,-9.153Z" style="fill:#323232;fill-rule:nonzero;"/></g><g><path d="M167.041,181.384l0,-0.735l-2.81,0l0,-1.512l2.383,0l0,-0.735l-2.383,0l0,-1.494l2.733,0l0,-0.735l-3.519,0l0,5.211l3.596,0Z" style="fill:#323232;fill-rule:nonzero;"/><path d="M172.799,177.283c-0.513,0 -0.931,0.223 -1.478,0.778c-0.171,-0.547 -0.572,-0.778 -1.179,-0.778c-0.529,0 -0.948,0.265 -1.358,0.667l0,-0.598l-0.769,0l0,4.032l0.769,0l0,-2.674c0.393,-0.444 0.82,-0.709 1.23,-0.709c0.521,0 0.658,0.333 0.658,1.051l0,2.332l0.769,0l0,-2.674c0.461,-0.478 0.854,-0.709 1.23,-0.709c0.521,0 0.64,0.333 0.64,1.051l0,2.332l0.769,0l0,-2.52c0,-1.085 -0.427,-1.581 -1.281,-1.581Z" style="fill:#323232;fill-rule:nonzero;"/><path d="M175.362,178.172c0.589,-0.145 1.033,-0.214 1.383,-0.214c0.684,0 0.846,0.214 0.846,1c-0.376,-0.009 -0.606,-0.009 -1.076,-0.009c-1.128,0 -1.683,0.436 -1.683,1.29c0,0.871 0.461,1.222 1.367,1.222c0.623,0 1.033,-0.291 1.392,-0.581l0,0.504l0.769,0l0,-2.418c0,-1.187 -0.359,-1.691 -1.486,-1.691c-0.436,0 -0.863,0.068 -1.641,0.273l0.129,0.624ZM177.591,179.504l0,0.769c-0.307,0.342 -0.734,0.615 -1.17,0.615c-0.581,0 -0.88,-0.247 -0.88,-0.726c0,-0.521 0.35,-0.658 1.068,-0.658l0.982,0Z" style="fill:#323232;fill-rule:nonzero;"/><path d="M179.394,176.181c0,0.274 0.213,0.428 0.461,0.428c0.248,0 0.461,-0.154 0.461,-0.428c0,-0.281 -0.213,-0.427 -0.461,-0.427c-0.248,0 -0.461,0.146 -0.461,0.427ZM180.248,181.384l0,-4.032l-0.769,0l0,4.032l0.769,0Z" style="fill:#323232;fill-rule:nonzero;"/><rect x="181.435" y="175.806" width="0.769" height="5.578" style="fill:#323232;fill-rule:nonzero;"/><path d="M179.221,170.789c0,0.143 -0.126,0.269 -0.269,0.269l-12.383,0c-0.143,0 -0.269,-0.126 -0.269,-0.269l0,-6.461c0.176,0.202 0.37,0.387 0.58,0.556c1.203,0.925 2.415,1.867 3.584,2.843c0.631,0.53 1.413,1.178 2.288,1.178l0.017,0c0.875,0 1.657,-0.648 2.288,-1.178c1.169,-0.976 2.381,-1.918 3.584,-2.843c0.21,-0.169 0.403,-0.354 0.58,-0.556l0,6.461ZM179.221,161.948c0,0.715 -0.69,1.649 -1.236,2.078c-1.128,0.883 -2.255,1.775 -3.374,2.666c-0.446,0.362 -1.253,1.136 -1.842,1.136l-0.009,0l-0.008,0c-0.589,0 -1.396,-0.774 -1.842,-1.136c-1.119,-0.891 -2.246,-1.783 -3.374,-2.666c-0.757,-0.598 -1.236,-1.431 -1.236,-2.39c0,-0.143 0.126,-0.269 0.269,-0.269l12.383,0c0.32,0 0.269,0.37 0.269,0.581ZM180.298,161.636c0,-0.74 -0.606,-1.345 -1.346,-1.345l-12.383,0c-0.74,0 -1.346,0.605 -1.346,1.345l0,9.153c0,0.74 0.606,1.346 1.346,1.346l12.383,0c0.74,0 1.346,-0.606 1.346,-1.346l0,-9.153Z" style="fill:#323232;fill-rule:nonzero;"/></g><path d="M65.042,116.975l0,1.899l-2.849,-2.849l2.849,-2.849l0,1.899l26.141,0l0,-1.899l2.849,2.849l-2.849,2.849l0,-1.899l-26.141,0Z" style="fill:#000;"/><path d="M153.236,77.059l-1.343,-1.343l4.029,0l0,4.029l-1.343,-1.343l-16.307,16.308l1.343,1.343l-4.029,0l0,-4.029l1.343,1.343l16.307,-16.308Z" style="fill:#000;"/><path d="M169.912,115.143l0,-1.9l2.848,2.849l-2.848,2.849l0,-1.899l-27.028,0l0,1.899l-2.849,-2.849l2.849,-2.849l0,1.9l27.028,0Z" style="fill:#000;"/><path d="M156.594,155.59l1.343,-1.343l0,4.029l-4.029,0l1.343,-1.343l-18.818,-18.817l-1.343,1.343l0,-4.029l4.029,0l-1.343,1.343l18.818,18.817Z" style="fill:#000;"/><g><path d="M56.44,124.958c0,-4.056 -0.951,-10.283 -6.21,-10.283c-0.556,0 -2.907,2.494 -6.424,2.494c-3.518,0 -5.869,-2.494 -6.425,-2.494c-5.258,0 -6.21,6.227 -6.21,10.283c0,2.907 1.939,4.648 4.792,4.648l15.685,0c2.854,0 4.792,-1.741 4.792,-4.648ZM50.697,108.932c0,-3.805 -3.087,-6.892 -6.891,-6.892c-3.805,0 -6.892,3.087 -6.892,6.892c0,3.804 3.087,6.891 6.892,6.891c3.804,0 6.891,-3.087 6.891,-6.891Z" style="fill:#323232;fill-rule:nonzero;"/></g><g><path d="M130.717,98.155c0,-1.249 -1.013,-2.262 -2.262,-2.262l-25.722,0c-1.248,0 -2.261,1.013 -2.261,2.262l0,35.337c0,1.248 1.013,2.262 2.261,2.262l25.722,0c1.249,0 2.262,-1.014 2.262,-2.262l0,-35.337Z" style="fill:#00a0dd;"/><path d="M128.485,95.893l0.029,0.001l0.029,0.001l0.029,0.001l0.029,0.001l0.028,0.003l0.029,0.002l0.028,0.003l0.029,0.003l0.028,0.003l0.028,0.004l0.029,0.004l0.028,0.004l0.027,0.005l0.028,0.005l0.028,0.006l0.027,0.006l0.028,0.006l0.027,0.006l0.027,0.007l0.027,0.007l0.027,0.008l0.027,0.008l0.027,0.008l0.026,0.008l0.026,0.009l0.027,0.009l0.026,0.009l0.026,0.01l0.025,0.01l0.026,0.01l0.025,0.011l0.026,0.011l0.025,0.011l0.025,0.011l0.025,0.012l0.024,0.012l0.025,0.012l0.024,0.013l0.024,0.013l0.024,0.013l0.024,0.014l0.023,0.013l0.024,0.015l0.023,0.014l0.023,0.014l0.023,0.015l0.023,0.015l0.022,0.016l0.022,0.015l0.022,0.016l0.022,0.016l0.022,0.017l0.021,0.017l0.022,0.016l0.021,0.018l0.02,0.017l0.021,0.018l0.021,0.018l0.02,0.018l0.02,0.018l0.019,0.019l0.02,0.019l0.019,0.019l0.019,0.019l0.019,0.019l0.019,0.02l0.018,0.02l0.018,0.02l0.018,0.021l0.018,0.02l0.017,0.021l0.017,0.021l0.017,0.022l0.017,0.021l0.016,0.022l0.017,0.022l0.016,0.022l0.015,0.022l0.016,0.022l0.015,0.023l0.014,0.023l0.015,0.023l0.014,0.023l0.014,0.024l0.014,0.023l0.014,0.024l0.013,0.024l0.013,0.024l0.012,0.024l0.013,0.025l0.012,0.024l0.012,0.025l0.011,0.025l0.011,0.025l0.011,0.026l0.011,0.025l0.01,0.026l0.01,0.025l0.01,0.026l0.009,0.026l0.009,0.026l0.009,0.027l0.008,0.026l0.008,0.027l0.008,0.027l0.008,0.027l0.007,0.027l0.007,0.027l0.006,0.027l0.006,0.027l0.006,0.028l0.006,0.028l0.005,0.027l0.004,0.028l0.005,0.028l0.004,0.028l0.004,0.029l0.003,0.028l0.003,0.028l0.003,0.029l0.002,0.029l0.002,0.028l0.002,0.029l0.001,0.029l0.001,0.029l0.001,0.029l0,0.03l0,35.337l0,0.029l-0.001,0.029l-0.001,0.029l-0.001,0.029l-0.002,0.029l-0.002,0.029l-0.002,0.028l-0.003,0.029l-0.003,0.028l-0.003,0.029l-0.004,0.028l-0.004,0.028l-0.005,0.028l-0.004,0.028l-0.005,0.028l-0.006,0.027l-0.006,0.028l-0.006,0.027l-0.006,0.028l-0.007,0.027l-0.007,0.027l-0.008,0.027l-0.008,0.027l-0.008,0.026l-0.008,0.027l-0.009,0.026l-0.009,0.026l-0.009,0.026l-0.01,0.026l-0.01,0.026l-0.01,0.025l-0.011,0.026l-0.011,0.025l-0.011,0.025l-0.011,0.025l-0.012,0.025l-0.012,0.025l-0.013,0.024l-0.012,0.024l-0.013,0.025l-0.013,0.024l-0.014,0.023l-0.014,0.024l-0.014,0.023l-0.014,0.024l-0.015,0.023l-0.014,0.022l-0.015,0.023l-0.016,0.023l-0.015,0.022l-0.016,0.022l-0.017,0.022l-0.016,0.021l-0.017,0.022l-0.017,0.021l-0.017,0.021l-0.017,0.021l-0.018,0.021l-0.018,0.02l-0.018,0.02l-0.018,0.02l-0.019,0.02l-0.019,0.02l-0.019,0.019l-0.019,0.019l-0.02,0.019l-0.019,0.018l-0.02,0.019l-0.02,0.018l-0.021,0.018l-0.021,0.017l-0.02,0.018l-0.021,0.017l-0.022,0.017l-0.021,0.017l-0.022,0.016l-0.022,0.016l-0.022,0.016l-0.022,0.016l-0.022,0.015l-0.023,0.015l-0.023,0.015l-0.023,0.015l-0.023,0.014l-0.024,0.014l-0.023,0.014l-0.024,0.013l-0.024,0.013l-0.024,0.013l-0.024,0.013l-0.025,0.012l-0.024,0.012l-0.025,0.012l-0.025,0.012l-0.025,0.011l-0.026,0.011l-0.025,0.01l-0.026,0.011l-0.025,0.01l-0.026,0.009l-0.026,0.01l-0.027,0.009l-0.026,0.008l-0.026,0.009l-0.027,0.008l-0.027,0.008l-0.027,0.007l-0.027,0.007l-0.027,0.007l-0.027,0.007l-0.028,0.006l-0.027,0.006l-0.028,0.005l-0.028,0.005l-0.027,0.005l-0.028,0.004l-0.029,0.005l-0.028,0.003l-0.028,0.004l-0.029,0.003l-0.028,0.003l-0.029,0.002l-0.028,0.002l-0.029,0.002l-0.029,0.001l-0.029,0.001l-0.029,0l-0.03,0.001l-25.722,0l-0.029,-0.001l-0.029,0l-0.029,-0.001l-0.029,-0.001l-0.029,-0.002l-0.028,-0.002l-0.029,-0.002l-0.029,-0.003l-0.028,-0.003l-0.028,-0.004l-0.029,-0.003l-0.028,-0.005l-0.028,-0.004l-0.028,-0.005l-0.027,-0.005l-0.028,-0.005l-0.028,-0.006l-0.027,-0.006l-0.027,-0.007l-0.027,-0.007l-0.028,-0.007l-0.026,-0.007l-0.027,-0.008l-0.027,-0.008l-0.026,-0.009l-0.027,-0.008l-0.026,-0.009l-0.026,-0.01l-0.026,-0.009l-0.026,-0.01l-0.025,-0.011l-0.026,-0.01l-0.025,-0.011l-0.025,-0.011l-0.025,-0.012l-0.025,-0.012l-0.024,-0.012l-0.025,-0.012l-0.024,-0.013l-0.024,-0.013l-0.024,-0.013l-0.024,-0.013l-0.024,-0.014l-0.023,-0.014l-0.023,-0.014l-0.023,-0.015l-0.023,-0.015l-0.023,-0.015l-0.022,-0.015l-0.022,-0.016l-0.023,-0.016l-0.021,-0.016l-0.022,-0.016l-0.022,-0.017l-0.021,-0.017l-0.021,-0.017l-0.021,-0.018l-0.02,-0.017l-0.021,-0.018l-0.02,-0.018l-0.02,-0.019l-0.02,-0.018l-0.019,-0.019l-0.019,-0.019l-0.02,-0.019l-0.018,-0.02l-0.019,-0.02l-0.018,-0.02l-0.019,-0.02l-0.017,-0.02l-0.018,-0.021l-0.017,-0.021l-0.018,-0.021l-0.017,-0.021l-0.016,-0.022l-0.017,-0.021l-0.016,-0.022l-0.016,-0.022l-0.015,-0.022l-0.016,-0.023l-0.015,-0.023l-0.015,-0.022l-0.014,-0.023l-0.015,-0.024l-0.014,-0.023l-0.013,-0.024l-0.014,-0.023l-0.013,-0.024l-0.013,-0.025l-0.013,-0.024l-0.012,-0.024l-0.012,-0.025l-0.012,-0.025l-0.011,-0.025l-0.011,-0.025l-0.011,-0.025l-0.011,-0.026l-0.01,-0.025l-0.01,-0.026l-0.01,-0.026l-0.009,-0.026l-0.009,-0.026l-0.009,-0.026l-0.008,-0.027l-0.009,-0.026l-0.007,-0.027l-0.008,-0.027l-0.007,-0.027l-0.007,-0.027l-0.006,-0.028l-0.006,-0.027l-0.006,-0.028l-0.006,-0.027l-0.005,-0.028l-0.005,-0.028l-0.004,-0.028l-0.004,-0.028l-0.004,-0.028l-0.003,-0.029l-0.004,-0.028l-0.002,-0.029l-0.003,-0.028l-0.002,-0.029l-0.001,-0.029l-0.002,-0.029l0,-0.029l-0.001,-0.029l0,-0.029l0,-35.337l0,-0.03l0.001,-0.029l0,-0.029l0.002,-0.029l0.001,-0.029l0.002,-0.028l0.003,-0.029l0.002,-0.029l0.004,-0.028l0.003,-0.028l0.004,-0.029l0.004,-0.028l0.004,-0.028l0.005,-0.028l0.005,-0.027l0.006,-0.028l0.006,-0.028l0.006,-0.027l0.006,-0.027l0.007,-0.027l0.007,-0.027l0.008,-0.027l0.007,-0.027l0.009,-0.027l0.008,-0.026l0.009,-0.027l0.009,-0.026l0.009,-0.026l0.01,-0.026l0.01,-0.025l0.01,-0.026l0.011,-0.025l0.011,-0.026l0.011,-0.025l0.011,-0.025l0.012,-0.025l0.012,-0.024l0.012,-0.025l0.013,-0.024l0.013,-0.024l0.013,-0.024l0.014,-0.024l0.013,-0.023l0.014,-0.024l0.015,-0.023l0.014,-0.023l0.015,-0.023l0.015,-0.023l0.016,-0.022l0.015,-0.022l0.016,-0.022l0.016,-0.022l0.017,-0.022l0.016,-0.021l0.017,-0.022l0.018,-0.021l0.017,-0.021l0.018,-0.02l0.017,-0.021l0.019,-0.02l0.018,-0.02l0.019,-0.02l0.018,-0.019l0.02,-0.019l0.019,-0.019l0.019,-0.019l0.02,-0.019l0.02,-0.018l0.02,-0.018l0.021,-0.018l0.02,-0.018l0.021,-0.017l0.021,-0.018l0.021,-0.016l0.022,-0.017l0.022,-0.017l0.021,-0.016l0.023,-0.016l0.022,-0.015l0.022,-0.016l0.023,-0.015l0.023,-0.015l0.023,-0.014l0.023,-0.014l0.023,-0.015l0.024,-0.013l0.024,-0.014l0.024,-0.013l0.024,-0.013l0.024,-0.013l0.025,-0.012l0.024,-0.012l0.025,-0.012l0.025,-0.011l0.025,-0.011l0.025,-0.011l0.026,-0.011l0.025,-0.01l0.026,-0.01l0.026,-0.01l0.026,-0.009l0.026,-0.009l0.027,-0.009l0.026,-0.008l0.027,-0.008l0.027,-0.008l0.026,-0.008l0.028,-0.007l0.027,-0.007l0.027,-0.006l0.027,-0.006l0.028,-0.006l0.028,-0.006l0.027,-0.005l0.028,-0.005l0.028,-0.004l0.028,-0.004l0.029,-0.004l0.028,-0.003l0.028,-0.003l0.029,-0.003l0.029,-0.002l0.028,-0.003l0.029,-0.001l0.029,-0.001l0.029,-0.001l0.029,-0.001l0.029,0l25.722,0l0.03,0ZM103.472,98.893l0,33.861l24.245,0l0,-33.861l-24.245,0Z" style="fill:#00a2da;"/><g><path d="M117.109,127.638l-0.924,-0.925c-0.11,-0.109 -0.329,-0.201 -0.486,-0.201l-2.656,0c-0.157,0 -0.284,0.127 -0.284,0.284l0,4.742c0,0.157 0.127,0.285 0.284,0.285l3.983,0c0.158,0 0.285,-0.128 0.285,-0.285l0,-3.414c0,-0.157 -0.092,-0.376 -0.202,-0.486ZM115.793,126.915c0.051,0.018 0.101,0.044 0.122,0.065l0.928,0.928c0.02,0.02 0.047,0.071 0.065,0.121l-1.115,0l0,-1.114ZM116.932,131.444l-3.794,0l0,-4.553l2.276,0l0,1.233c0,0.157 0.128,0.285 0.285,0.285l1.233,0l0,3.035ZM113.897,128.883l0,0.189c0,0.054 0.041,0.095 0.094,0.095l2.087,0c0.053,0 0.095,-0.041 0.095,-0.095l0,-0.189c0,-0.054 -0.042,-0.095 -0.095,-0.095l-2.087,0c-0.053,0 -0.094,0.041 -0.094,0.095ZM116.078,129.547l-2.087,0c-0.053,0 -0.094,0.041 -0.094,0.095l0,0.189c0,0.054 0.041,0.095 0.094,0.095l2.087,0c0.053,0 0.095,-0.041 0.095,-0.095l0,-0.189c0,-0.054 -0.042,-0.095 -0.095,-0.095ZM116.078,130.305l-2.087,0c-0.053,0 -0.094,0.042 -0.094,0.095l0,0.19c0,0.053 0.041,0.095 0.094,0.095l2.087,0c0.053,0 0.095,-0.042 0.095,-0.095l0,-0.19c0,-0.053 -0.042,-0.095 -0.095,-0.095Z" style="fill:#fff;fill-rule:nonzero;"/><g><rect x="114.672" y="127.121" width="4.552" height="5.311" style="fill:#00a5df;"/><path d="M119.023,128.247l-0.925,-0.925c-0.11,-0.109 -0.329,-0.201 -0.486,-0.201l-2.656,0c-0.157,0 -0.284,0.127 -0.284,0.284l0,4.742c0,0.157 0.127,0.285 0.284,0.285l3.984,0c0.157,0 0.284,-0.128 0.284,-0.285l0,-3.414c0,-0.157 -0.092,-0.376 -0.201,-0.486ZM117.707,127.524c0.05,0.018 0.101,0.044 0.121,0.065l0.928,0.928c0.021,0.02 0.047,0.071 0.065,0.121l-1.114,0l0,-1.114ZM118.845,132.053l-3.794,0l0,-4.553l2.276,0l0,1.233c0,0.157 0.128,0.285 0.285,0.285l1.233,0l0,3.035ZM115.81,129.492l0,0.189c0,0.054 0.041,0.095 0.095,0.095l2.086,0c0.054,0 0.095,-0.041 0.095,-0.095l0,-0.189c0,-0.054 -0.041,-0.095 -0.095,-0.095l-2.086,0c-0.054,0 -0.095,0.041 -0.095,0.095ZM117.991,130.156l-2.086,0c-0.054,0 -0.095,0.041 -0.095,0.095l0,0.189c0,0.054 0.041,0.095 0.095,0.095l2.086,0c0.054,0 0.095,-0.041 0.095,-0.095l0,-0.189c0,-0.054 -0.041,-0.095 -0.095,-0.095ZM117.991,130.914l-2.086,0c-0.054,0 -0.095,0.042 -0.095,0.095l0,0.19c0,0.053 0.041,0.095 0.095,0.095l2.086,0c0.054,0 0.095,-0.042 0.095,-0.095l0,-0.19c0,-0.053 -0.041,-0.095 -0.095,-0.095Z" style="fill:#fff;fill-rule:nonzero;"/></g></g><path d="M123.526,131.347c0,0.059 -0.045,0.105 -0.104,0.105l-1.048,0c-0.058,0 -0.104,-0.046 -0.104,-0.105l0,-0.628c0,-0.059 0.046,-0.105 0.104,-0.105l1.048,0c0.059,0 0.104,0.046 0.104,0.105l0,0.628ZM123.526,130.09c0,0.059 -0.045,0.105 -0.104,0.105l-1.048,0c-0.058,0 -0.104,-0.046 -0.104,-0.105l0,-0.628c0,-0.059 0.046,-0.105 0.104,-0.105l1.048,0c0.059,0 0.104,0.046 0.104,0.105l0,0.628ZM125.202,131.347c0,0.059 -0.046,0.105 -0.105,0.105l-1.047,0c-0.059,0 -0.105,-0.046 -0.105,-0.105l0,-0.628c0,-0.059 0.046,-0.105 0.105,-0.105l1.047,0c0.059,0 0.105,0.046 0.105,0.105l0,0.628ZM123.526,128.834c0,0.059 -0.045,0.104 -0.104,0.104l-1.048,0c-0.058,0 -0.104,-0.045 -0.104,-0.104l0,-0.629c0,-0.059 0.046,-0.104 0.104,-0.104l1.048,0c0.059,0 0.104,0.045 0.104,0.104l0,0.629ZM125.202,130.09c0,0.059 -0.046,0.105 -0.105,0.105l-1.047,0c-0.059,0 -0.105,-0.046 -0.105,-0.105l0,-0.628c0,-0.059 0.046,-0.105 0.105,-0.105l1.047,0c0.059,0 0.105,0.046 0.105,0.105l0,0.628ZM126.878,131.347c0,0.059 -0.046,0.105 -0.105,0.105l-1.047,0c-0.059,0 -0.105,-0.046 -0.105,-0.105l0,-0.628c0,-0.059 0.046,-0.105 0.105,-0.105l1.047,0c0.059,0 0.105,0.046 0.105,0.105l0,0.628ZM125.202,128.834c0,0.059 -0.046,0.104 -0.105,0.104l-1.047,0c-0.059,0 -0.105,-0.045 -0.105,-0.104l0,-0.629c0,-0.059 0.046,-0.104 0.105,-0.104l1.047,0c0.059,0 0.105,0.045 0.105,0.104l0,0.629ZM126.878,130.09c0,0.059 -0.046,0.105 -0.105,0.105l-1.047,0c-0.059,0 -0.105,-0.046 -0.105,-0.105l0,-0.628c0,-0.059 0.046,-0.105 0.105,-0.105l1.047,0c0.059,0 0.105,0.046 0.105,0.105l0,0.628ZM126.878,128.834c0,0.059 -0.046,0.104 -0.105,0.104l-1.047,0c-0.059,0 -0.105,-0.045 -0.105,-0.104l0,-0.629c0,-0.059 0.046,-0.104 0.105,-0.104l1.047,0c0.059,0 0.105,0.045 0.105,0.104l0,0.629ZM127.297,127.786c0,-0.288 -0.236,-0.523 -0.524,-0.523l-4.399,0c-0.288,0 -0.523,0.235 -0.523,0.523l0,3.561c0,0.288 0.235,0.524 0.523,0.524l4.399,0c0.288,0 0.524,-0.236 0.524,-0.524l0,-3.561Z" style="fill:#fff;fill-rule:nonzero;"/><path d="M105.524,131.539c0,0.232 -0.187,0.419 -0.419,0.419c-0.232,0 -0.419,-0.187 -0.419,-0.419c0,-0.233 0.187,-0.419 0.419,-0.419c0.232,0 0.419,0.186 0.419,0.419ZM106.781,131.539c0,0.232 -0.187,0.419 -0.419,0.419c-0.233,0 -0.419,-0.187 -0.419,-0.419c0,-0.233 0.186,-0.419 0.419,-0.419c0.232,0 0.419,0.186 0.419,0.419ZM105.524,130.282c0,0.232 -0.187,0.419 -0.419,0.419c-0.232,0 -0.419,-0.187 -0.419,-0.419c0,-0.232 0.187,-0.419 0.419,-0.419c0.232,0 0.419,0.187 0.419,0.419ZM108.037,131.539c0,0.232 -0.186,0.419 -0.418,0.419c-0.233,0 -0.419,-0.187 -0.419,-0.419c0,-0.233 0.186,-0.419 0.419,-0.419c0.232,0 0.418,0.186 0.418,0.419ZM106.781,130.282c0,0.232 -0.187,0.419 -0.419,0.419c-0.233,0 -0.419,-0.187 -0.419,-0.419c0,-0.232 0.186,-0.419 0.419,-0.419c0.232,0 0.419,0.187 0.419,0.419ZM105.524,129.025c0,0.233 -0.187,0.419 -0.419,0.419c-0.232,0 -0.419,-0.186 -0.419,-0.419c0,-0.232 0.187,-0.419 0.419,-0.419c0.232,0 0.419,0.187 0.419,0.419ZM108.037,130.282c0,0.232 -0.186,0.419 -0.418,0.419c-0.233,0 -0.419,-0.187 -0.419,-0.419c0,-0.232 0.186,-0.419 0.419,-0.419c0.232,0 0.418,0.187 0.418,0.419ZM106.781,129.025c0,0.233 -0.187,0.419 -0.419,0.419c-0.233,0 -0.419,-0.186 -0.419,-0.419c0,-0.232 0.186,-0.419 0.419,-0.419c0.232,0 0.419,0.187 0.419,0.419ZM109.294,131.539c0,0.229 -0.19,0.419 -0.419,0.419c-0.229,0 -0.419,-0.19 -0.419,-0.419l0,-1.257c0,-0.229 0.19,-0.419 0.419,-0.419c0.229,0 0.419,0.19 0.419,0.419l0,1.257ZM108.037,129.025c0,0.233 -0.186,0.419 -0.418,0.419c-0.233,0 -0.419,-0.186 -0.419,-0.419c0,-0.232 0.186,-0.419 0.419,-0.419c0.232,0 0.418,0.187 0.418,0.419ZM109.294,127.978c0,0.114 -0.095,0.209 -0.209,0.209l-4.189,0c-0.115,0 -0.21,-0.095 -0.21,-0.209l0,-0.838c0,-0.114 0.095,-0.209 0.21,-0.209l4.189,0c0.114,0 0.209,0.095 0.209,0.209l0,0.838ZM109.294,129.025c0,0.233 -0.186,0.419 -0.419,0.419c-0.232,0 -0.419,-0.186 -0.419,-0.419c0,-0.232 0.187,-0.419 0.419,-0.419c0.233,0 0.419,0.187 0.419,0.419ZM109.713,126.931c0,-0.229 -0.19,-0.419 -0.419,-0.419l-4.608,0c-0.229,0 -0.419,0.19 -0.419,0.419l0,5.027c0,0.229 0.19,0.418 0.419,0.418l4.608,0c0.229,0 0.419,-0.189 0.419,-0.418l0,-5.027Z" style="fill:#fff;fill-rule:nonzero;"/><path d="M106.73,112.147l0,-0.785l-1.43,0l0,-0.365l1.18,0l0,-0.73l-1.18,0l0,-0.39l1.39,0l0,-0.78l-2.315,0l0,3.05l2.355,0Z" style="fill:#fff;fill-rule:nonzero;"/><path d="M108.01,109.712l-0.905,0l0,2.435l0.905,0l0,-1.4c0.12,-0.135 0.25,-0.225 0.405,-0.225c0.18,0 0.225,0.08 0.225,0.335l0,1.29l0.905,0l0,-1.55c0,-0.66 -0.195,-0.925 -0.705,-0.925c-0.275,0 -0.51,0.115 -0.83,0.365l0,-0.325Z" style="fill:#fff;fill-rule:nonzero;"/><path d="M111.56,111.462c-0.115,0.005 -0.205,0.005 -0.31,0.005c-0.225,0 -0.28,-0.105 -0.28,-0.285l0,-0.72l0.57,0l0,-0.745l-0.57,0l0,-0.52l-0.905,0l0,0.52l-0.33,0l0,0.745l0.33,0l0,0.76c0,0.695 0.25,0.965 0.835,0.965c0.27,0 0.58,-0.075 0.75,-0.18l-0.09,-0.545Z" style="fill:#fff;fill-rule:nonzero;"/><path d="M113.895,111.287c-0.31,0.145 -0.525,0.21 -0.855,0.21c-0.245,0 -0.37,-0.095 -0.415,-0.325l1.505,0c0.015,-0.14 0.02,-0.225 0.02,-0.335c0,-0.755 -0.445,-1.17 -1.15,-1.17c-0.785,0 -1.25,0.45 -1.25,1.28c0,0.815 0.48,1.245 1.25,1.245c0.415,0 0.76,-0.115 1.15,-0.39l-0.255,-0.515ZM112.62,110.692c0.04,-0.275 0.175,-0.405 0.38,-0.405c0.23,0 0.355,0.14 0.365,0.405l-0.745,0Z" style="fill:#fff;fill-rule:nonzero;"/><path d="M115.355,109.712l-0.905,0l0,2.435l0.905,0l0,-1.13c0.095,-0.345 0.295,-0.42 0.59,-0.42c0.085,0 0.165,0 0.285,0.01l0.06,-0.92c-0.135,-0.015 -0.215,-0.015 -0.3,-0.015c-0.27,0 -0.455,0.155 -0.635,0.51l0,-0.47Z" style="fill:#fff;fill-rule:nonzero;"/><path d="M117.405,109.712l-0.905,0l0,3.195l0.905,0l0,-1.035c0.19,0.205 0.325,0.32 0.695,0.32c0.505,0 0.95,-0.375 0.95,-1.285c0,-0.865 -0.305,-1.235 -0.9,-1.235c-0.28,0 -0.505,0.1 -0.745,0.315l0,-0.275ZM117.405,110.662c0.12,-0.155 0.245,-0.235 0.41,-0.235c0.22,0 0.34,0.14 0.34,0.475c0,0.38 -0.13,0.545 -0.36,0.545c-0.185,0 -0.29,-0.075 -0.39,-0.22l0,-0.565Z" style="fill:#fff;fill-rule:nonzero;"/><path d="M120.235,109.712l-0.905,0l0,2.435l0.905,0l0,-1.13c0.095,-0.345 0.295,-0.42 0.59,-0.42c0.085,0 0.165,0 0.285,0.01l0.06,-0.92c-0.135,-0.015 -0.215,-0.015 -0.3,-0.015c-0.27,0 -0.455,0.155 -0.635,0.51l0,-0.47Z" style="fill:#fff;fill-rule:nonzero;"/><path d="M121.345,109.007c0,0.305 0.245,0.46 0.51,0.46c0.265,0 0.51,-0.155 0.51,-0.46c0,-0.31 -0.245,-0.465 -0.51,-0.465c-0.265,0 -0.51,0.155 -0.51,0.465ZM122.31,112.147l0,-2.435l-0.905,0l0,2.435l0.905,0Z" style="fill:#fff;fill-rule:nonzero;"/><path d="M124.75,109.832c-0.515,-0.145 -0.825,-0.165 -1.155,-0.165c-0.54,0 -0.885,0.31 -0.885,0.79c0,0.425 0.2,0.625 0.655,0.765c0.38,0.115 0.505,0.13 0.505,0.23c0,0.06 -0.045,0.09 -0.17,0.09c-0.19,0 -0.535,-0.1 -0.905,-0.27l-0.22,0.61c0.375,0.185 0.85,0.31 1.19,0.31c0.605,0 1.005,-0.29 1.005,-0.825c0,-0.395 -0.195,-0.585 -0.655,-0.72c-0.435,-0.125 -0.555,-0.125 -0.555,-0.24c0,-0.075 0.07,-0.1 0.15,-0.1c0.13,0 0.41,0.03 0.825,0.155l0.215,-0.63Z" style="fill:#fff;fill-rule:nonzero;"/><path d="M127.105,111.287c-0.31,0.145 -0.525,0.21 -0.855,0.21c-0.245,0 -0.37,-0.095 -0.415,-0.325l1.505,0c0.015,-0.14 0.02,-0.225 0.02,-0.335c0,-0.755 -0.445,-1.17 -1.15,-1.17c-0.785,0 -1.25,0.45 -1.25,1.28c0,0.815 0.48,1.245 1.25,1.245c0.415,0 0.76,-0.115 1.15,-0.39l-0.255,-0.515ZM125.83,110.692c0.04,-0.275 0.175,-0.405 0.38,-0.405c0.23,0 0.355,0.14 0.365,0.405l-0.745,0Z" style="fill:#fff;fill-rule:nonzero;"/><path d="M109.445,107.005l0,-0.453l-3.634,0l0,-5.983l-0.514,0l0,6.436l4.148,0Z" style="fill:#9adffe;fill-rule:nonzero;"/><path d="M114.668,106.003c-0.583,0.517 -1.246,0.707 -1.954,0.707c-1.029,0 -1.932,-0.517 -1.954,-2.037l4.274,0c0.023,-0.116 0.023,-0.19 0.023,-0.274c-0.058,-1.688 -0.983,-2.385 -2.297,-2.385c-1.338,0 -2.48,0.718 -2.48,2.586c0,1.815 1.097,2.5 2.422,2.5c0.846,0 1.6,-0.232 2.183,-0.812l-0.217,-0.285ZM110.771,104.304c0.091,-1.403 1.006,-1.899 1.989,-1.899c1.028,0 1.782,0.527 1.839,1.899l-3.828,0Z" style="fill:#9adffe;fill-rule:nonzero;"/><path d="M116.714,102.69c0.8,-0.19 1.394,-0.264 1.897,-0.264c1.074,0 1.371,0.411 1.371,1.646c-0.594,-0.011 -0.971,-0.011 -1.703,-0.011c-1.485,0 -2.194,0.486 -2.194,1.53c0,0.982 0.594,1.509 1.829,1.509c0.948,0 1.565,-0.411 2.068,-1.002l0,0.907l0.492,0l0,-2.923c0,-1.445 -0.378,-2.068 -1.806,-2.068c-0.594,0 -1.166,0.074 -2.046,0.296l0.092,0.38ZM119.982,104.42l0,1.224c-0.503,0.665 -1.12,1.087 -1.977,1.087c-0.983,0 -1.451,-0.433 -1.451,-1.171c0,-0.823 0.56,-1.14 1.771,-1.14l1.657,0Z" style="fill:#9adffe;fill-rule:nonzero;"/><path d="M122.759,102.109l-0.503,0l0,4.896l0.503,0l0,-3.45c0.537,-0.697 1.28,-1.108 2.103,-1.108c1.017,0 1.326,0.506 1.326,1.604l0,2.954l0.491,0l0,-3.039c0,-1.319 -0.503,-1.952 -1.76,-1.952c-0.88,0 -1.623,0.37 -2.16,1.003l0,-0.908Z" style="fill:#9adffe;fill-rule:nonzero;"/><path d="M107.974,119.283l3.02,0l0.395,1.024l2.021,0l-2.637,-6.437l-2.578,0l-2.648,6.437l2.032,0l0.395,-1.024ZM110.39,117.721l-1.824,0l0.709,-1.846l0.209,-0.591c0.046,0.168 0.116,0.358 0.197,0.591l0.709,1.846Z" style="fill:#9adffe;fill-rule:nonzero;"/><path d="M115.825,115.21l-1.858,0l0,6.722l1.858,0l0,-2.185c0.453,0.401 0.802,0.655 1.661,0.655c1.185,0 2.23,-0.781 2.23,-2.691c0,-1.826 -0.731,-2.596 -2.102,-2.596c-0.685,0 -1.231,0.243 -1.789,0.654l0,-0.559ZM115.825,117.088c0.314,-0.369 0.662,-0.57 1.115,-0.57c0.604,0 0.953,0.338 0.953,1.193c0,0.928 -0.407,1.308 -0.999,1.308c-0.511,0 -0.778,-0.19 -1.069,-0.538l0,-1.393Z" style="fill:#9adffe;fill-rule:nonzero;"/><path d="M122.306,115.21l-1.858,0l0,6.722l1.858,0l0,-2.185c0.453,0.401 0.802,0.655 1.661,0.655c1.185,0 2.23,-0.781 2.23,-2.691c0,-1.826 -0.732,-2.596 -2.102,-2.596c-0.685,0 -1.231,0.243 -1.789,0.654l0,-0.559ZM122.306,117.088c0.314,-0.369 0.662,-0.57 1.115,-0.57c0.604,0 0.953,0.338 0.953,1.193c0,0.928 -0.407,1.308 -0.999,1.308c-0.511,0 -0.778,-0.19 -1.069,-0.538l0,-1.393Z" style="fill:#9adffe;fill-rule:nonzero;"/></g></g></svg>