<?xml version="1.0" standalone="no"?><!DOCTYPE svg PUBLIC "-//W3C//DTD SVG 1.1//EN" "http://www.w3.org/Graphics/SVG/1.1/DTD/svg11.dtd"><svg width="100%" height="100%" viewBox="0 0 64 64" version="1.1" xmlns="http://www.w3.org/2000/svg" xmlns:xlink="http://www.w3.org/1999/xlink" xml:space="preserve" style="fill-rule:evenodd;clip-rule:evenodd;stroke-linejoin:round;stroke-miterlimit:1.41421;"><path d="M59.154,0.139l0.062,0.001l0.061,0.002l0.061,0.003l0.061,0.003l0.061,0.005l0.06,0.005l0.061,0.005l0.06,0.007l0.059,0.007l0.06,0.008l0.059,0.009l0.06,0.009l0.058,0.01l0.117,0.023l0.116,0.025l0.115,0.028l0.114,0.031l0.113,0.034l0.111,0.036l0.111,0.039l0.109,0.041l0.108,0.044l0.106,0.047l0.105,0.049l0.104,0.052l0.102,0.054l0.101,0.056l0.099,0.059l0.098,0.061l0.096,0.063l0.094,0.065l0.093,0.068l0.091,0.07l0.089,0.072l0.088,0.074l0.086,0.076l0.084,0.078l0.082,0.08l0.08,0.082l0.078,0.084l0.076,0.086l0.074,0.087l0.072,0.09l0.07,0.091l0.067,0.093l0.066,0.094l0.063,0.096l0.061,0.098l0.059,0.099l0.056,0.101l0.054,0.102l0.052,0.104l0.049,0.105l0.046,0.106l0.044,0.108l0.042,0.109l0.039,0.11l0.036,0.112l0.034,0.112l0.03,0.114l0.029,0.115l0.025,0.116l0.022,0.117l0.01,0.059l0.01,0.059l0.009,0.06l0.007,0.059l0.008,0.06l0.006,0.06l0.006,0.06l0.005,0.061l0.004,0.061l0.004,0.061l0.002,0.061l0.002,0.061l0.002,0.061l0,0.062l0,54.311l0,0.061l-0.002,0.062l-0.002,0.061l-0.002,0.061l-0.004,0.061l-0.004,0.061l-0.005,0.06l-0.006,0.061l-0.006,0.06l-0.008,0.06l-0.007,0.059l-0.009,0.059l-0.01,0.06l-0.01,0.059l-0.022,0.117l-0.025,0.116l-0.029,0.114l-0.03,0.114l-0.034,0.113l-0.036,0.112l-0.039,0.11l-0.042,0.109l-0.044,0.108l-0.046,0.106l-0.049,0.105l-0.052,0.104l-0.054,0.102l-0.056,0.101l-0.059,0.099l-0.061,0.098l-0.063,0.096l-0.066,0.094l-0.067,0.093l-0.07,0.091l-0.072,0.089l-0.074,0.088l-0.076,0.086l-0.078,0.084l-0.08,0.082l-0.082,0.08l-0.084,0.078l-0.086,0.076l-0.088,0.074l-0.089,0.072l-0.091,0.07l-0.093,0.067l-0.094,0.066l-0.096,0.063l-0.098,0.061l-0.099,0.059l-0.101,0.056l-0.102,0.054l-0.104,0.052l-0.105,0.049l-0.106,0.046l-0.108,0.045l-0.109,0.041l-0.111,0.039l-0.111,0.036l-0.113,0.034l-0.114,0.031l-0.115,0.028l-0.116,0.025l-0.117,0.022l-0.058,0.011l-0.06,0.009l-0.059,0.009l-0.06,0.008l-0.059,0.007l-0.06,0.006l-0.061,0.006l-0.06,0.005l-0.061,0.004l-0.061,0.004l-0.061,0.002l-0.061,0.002l-0.062,0.002l-0.061,0l-54.45,0l-0.061,0l-0.062,-0.002l-0.061,-0.002l-0.061,-0.002l-0.061,-0.004l-0.061,-0.004l-0.06,-0.005l-0.061,-0.006l-0.06,-0.006l-0.06,-0.007l-0.059,-0.008l-0.06,-0.009l-0.059,-0.009l-0.059,-0.011l-0.117,-0.022l-0.116,-0.025l-0.115,-0.028l-0.113,-0.031l-0.113,-0.034l-0.112,-0.036l-0.11,-0.039l-0.109,-0.041l-0.108,-0.045l-0.106,-0.046l-0.105,-0.049l-0.104,-0.052l-0.102,-0.054l-0.101,-0.056l-0.099,-0.059l-0.098,-0.061l-0.096,-0.063l-0.094,-0.066l-0.093,-0.067l-0.091,-0.07l-0.09,-0.072l-0.087,-0.074l-0.086,-0.076l-0.084,-0.078l-0.082,-0.08l-0.08,-0.082l-0.078,-0.084l-0.076,-0.086l-0.074,-0.088l-0.072,-0.089l-0.07,-0.091l-0.068,-0.093l-0.065,-0.094l-0.063,-0.096l-0.061,-0.098l-0.059,-0.099l-0.056,-0.101l-0.054,-0.102l-0.052,-0.104l-0.049,-0.105l-0.047,-0.106l-0.044,-0.108l-0.041,-0.109l-0.039,-0.11l-0.036,-0.112l-0.034,-0.113l-0.031,-0.114l-0.028,-0.114l-0.025,-0.116l-0.022,-0.117l-0.011,-0.059l-0.009,-0.06l-0.009,-0.059l-0.008,-0.059l-0.007,-0.06l-0.006,-0.06l-0.006,-0.061l-0.005,-0.06l-0.004,-0.061l-0.004,-0.061l-0.003,-0.061l-0.002,-0.061l-0.001,-0.062l0,-0.061l0,-54.311l0,-0.062l0.001,-0.061l0.002,-0.061l0.003,-0.061l0.004,-0.061l0.004,-0.061l0.005,-0.061l0.006,-0.06l0.006,-0.06l0.007,-0.06l0.008,-0.059l0.009,-0.06l0.009,-0.059l0.011,-0.059l0.022,-0.117l0.025,-0.116l0.028,-0.115l0.031,-0.114l0.034,-0.112l0.036,-0.112l0.039,-0.11l0.041,-0.109l0.044,-0.108l0.047,-0.106l0.049,-0.105l0.052,-0.104l0.054,-0.102l0.056,-0.101l0.059,-0.099l0.061,-0.098l0.063,-0.096l0.065,-0.094l0.068,-0.093l0.07,-0.091l0.072,-0.09l0.074,-0.087l0.076,-0.086l0.078,-0.084l0.08,-0.082l0.082,-0.08l0.084,-0.078l0.086,-0.076l0.087,-0.074l0.09,-0.072l0.091,-0.07l0.093,-0.068l0.094,-0.065l0.096,-0.063l0.098,-0.061l0.099,-0.059l0.101,-0.056l0.102,-0.054l0.104,-0.052l0.105,-0.049l0.106,-0.047l0.108,-0.044l0.109,-0.041l0.11,-0.039l0.112,-0.036l0.113,-0.034l0.113,-0.031l0.115,-0.028l0.116,-0.025l0.117,-0.023l0.059,-0.01l0.059,-0.009l0.06,-0.009l0.059,-0.008l0.06,-0.007l0.06,-0.007l0.061,-0.005l0.06,-0.005l0.061,-0.005l0.061,-0.003l0.061,-0.003l0.061,-0.002l0.062,-0.001l0.061,0l54.45,0l0.061,0ZM4.648,1.639l-0.047,0l-0.043,0.001l-0.042,0.001l-0.042,0.002l-0.042,0.003l-0.042,0.002l-0.042,0.004l-0.041,0.004l-0.041,0.004l-0.041,0.005l-0.041,0.006l-0.041,0.006l-0.04,0.006l-0.036,0.006l-0.085,0.016l-0.079,0.018l-0.078,0.019l-0.078,0.021l-0.077,0.023l-0.076,0.025l-0.076,0.026l-0.074,0.029l-0.074,0.03l-0.073,0.032l-0.072,0.033l-0.071,0.036l-0.07,0.037l-0.069,0.038l-0.068,0.04l-0.067,0.042l-0.066,0.044l-0.065,0.045l-0.064,0.046l-0.062,0.048l-0.062,0.05l-0.06,0.051l-0.059,0.052l-0.058,0.054l-0.056,0.055l-0.055,0.056l-0.054,0.058l-0.052,0.059l-0.051,0.06l-0.05,0.062l-0.048,0.062l-0.046,0.064l-0.045,0.065l-0.044,0.066l-0.041,0.067l-0.041,0.068l-0.038,0.069l-0.037,0.07l-0.036,0.071l-0.033,0.072l-0.032,0.073l-0.03,0.073l-0.029,0.075l-0.026,0.075l-0.025,0.077l-0.023,0.077l-0.021,0.077l-0.019,0.079l-0.017,0.079l-0.017,0.085l-0.006,0.036l-0.006,0.04l-0.006,0.041l-0.006,0.041l-0.005,0.041l-0.004,0.041l-0.004,0.041l-0.003,0.042l-0.003,0.042l-0.003,0.042l-0.002,0.042l-0.001,0.042l-0.001,0.043l0,0.047l0,54.301l0,0.047l0.001,0.043l0.001,0.042l0.002,0.042l0.003,0.042l0.003,0.042l0.003,0.041l0.004,0.042l0.004,0.041l0.005,0.041l0.006,0.041l0.006,0.041l0.006,0.04l0.006,0.036l0.017,0.085l0.017,0.079l0.019,0.078l0.021,0.078l0.023,0.077l0.025,0.076l0.026,0.076l0.029,0.074l0.03,0.074l0.032,0.073l0.033,0.072l0.036,0.071l0.037,0.07l0.038,0.069l0.04,0.068l0.042,0.067l0.044,0.066l0.045,0.065l0.046,0.064l0.048,0.062l0.05,0.062l0.051,0.06l0.052,0.059l0.054,0.057l0.055,0.057l0.056,0.055l0.058,0.054l0.059,0.052l0.06,0.051l0.062,0.05l0.062,0.048l0.064,0.046l0.065,0.045l0.066,0.044l0.067,0.041l0.068,0.041l0.069,0.038l0.07,0.037l0.071,0.036l0.072,0.033l0.073,0.032l0.074,0.03l0.074,0.029l0.076,0.026l0.076,0.025l0.077,0.023l0.078,0.021l0.078,0.019l0.079,0.017l0.085,0.017l0.036,0.006l0.04,0.006l0.041,0.006l0.041,0.006l0.041,0.005l0.041,0.004l0.041,0.004l0.042,0.003l0.042,0.003l0.042,0.003l0.042,0.002l0.042,0.001l0.043,0.001l0.047,0l54.44,0l0.047,0l0.043,-0.001l0.042,-0.001l0.042,-0.002l0.042,-0.003l0.042,-0.003l0.041,-0.003l0.042,-0.004l0.041,-0.004l0.041,-0.005l0.041,-0.006l0.041,-0.006l0.04,-0.006l0.036,-0.006l0.084,-0.017l0.08,-0.017l0.078,-0.019l0.078,-0.021l0.077,-0.023l0.076,-0.025l0.076,-0.026l0.074,-0.029l0.074,-0.03l0.073,-0.032l0.072,-0.033l0.071,-0.036l0.07,-0.037l0.069,-0.038l0.068,-0.041l0.067,-0.041l0.066,-0.044l0.065,-0.045l0.063,-0.046l0.063,-0.048l0.061,-0.05l0.061,-0.051l0.059,-0.052l0.057,-0.054l0.057,-0.055l0.055,-0.057l0.054,-0.057l0.052,-0.059l0.051,-0.06l0.049,-0.062l0.048,-0.062l0.047,-0.064l0.045,-0.065l0.043,-0.066l0.042,-0.067l0.041,-0.068l0.038,-0.069l0.037,-0.07l0.035,-0.071l0.034,-0.072l0.032,-0.073l0.03,-0.074l0.028,-0.074l0.027,-0.076l0.025,-0.076l0.023,-0.077l0.021,-0.078l0.019,-0.078l0.017,-0.079l0.016,-0.085l0.007,-0.036l0.006,-0.04l0.006,-0.041l0.005,-0.041l0.005,-0.041l0.005,-0.041l0.004,-0.042l0.003,-0.041l0.003,-0.042l0.003,-0.042l0.001,-0.042l0.002,-0.042l0.001,-0.043l0,-0.047l0,-54.301l0,-0.047l-0.001,-0.043l-0.002,-0.042l-0.001,-0.042l-0.003,-0.042l-0.003,-0.042l-0.003,-0.042l-0.004,-0.041l-0.005,-0.041l-0.005,-0.041l-0.005,-0.041l-0.006,-0.041l-0.006,-0.04l-0.007,-0.036l-0.016,-0.085l-0.017,-0.079l-0.019,-0.079l-0.021,-0.077l-0.023,-0.077l-0.025,-0.077l-0.027,-0.075l-0.028,-0.075l-0.03,-0.073l-0.032,-0.073l-0.034,-0.072l-0.035,-0.071l-0.037,-0.07l-0.038,-0.069l-0.041,-0.068l-0.042,-0.067l-0.043,-0.066l-0.045,-0.065l-0.047,-0.064l-0.048,-0.062l-0.049,-0.062l-0.051,-0.06l-0.052,-0.059l-0.054,-0.058l-0.055,-0.056l-0.057,-0.055l-0.057,-0.054l-0.059,-0.052l-0.061,-0.051l-0.061,-0.05l-0.063,-0.048l-0.063,-0.046l-0.065,-0.045l-0.066,-0.044l-0.067,-0.042l-0.068,-0.04l-0.069,-0.038l-0.07,-0.037l-0.071,-0.036l-0.072,-0.033l-0.073,-0.032l-0.074,-0.03l-0.074,-0.029l-0.076,-0.026l-0.076,-0.025l-0.077,-0.023l-0.078,-0.021l-0.078,-0.019l-0.08,-0.018l-0.084,-0.016l-0.036,-0.006l-0.04,-0.006l-0.041,-0.006l-0.041,-0.006l-0.041,-0.005l-0.041,-0.004l-0.042,-0.004l-0.041,-0.004l-0.042,-0.002l-0.042,-0.003l-0.042,-0.002l-0.042,-0.001l-0.043,-0.001l-0.047,0l-54.44,0Z" style="fill:#00a2da;"/><path d="M23.708,9.671l0,22.848l17.344,0l0,-4.224l-12.32,0l0,-5.6l11.072,0l0,-3.904l-11.072,0l0,-4.896l12.064,0l0,-4.224l-17.088,0Z" style="fill:#00a2da;fill-rule:nonzero;"/><path d="M17.548,46.269l2.86,-7.32l2.76,7.32l-5.62,0ZM19.708,37.589l-5.74,14.28l1.44,0l1.72,-4.44l6.5,0l1.74,4.44l1.46,0l-5.6,-14.28l-1.52,0Z" style="fill:#00a2da;fill-rule:nonzero;"/><path d="M27.888,41.549l0,14.12l1.26,0l0,-5.76l0.04,0c0.133,0.374 0.323,0.7 0.57,0.98c0.247,0.28 0.53,0.514 0.85,0.7c0.32,0.187 0.667,0.327 1.04,0.42c0.373,0.094 0.747,0.14 1.12,0.14c0.787,0 1.47,-0.143 2.05,-0.43c0.58,-0.286 1.063,-0.68 1.45,-1.18c0.387,-0.5 0.673,-1.08 0.86,-1.74c0.187,-0.66 0.28,-1.356 0.28,-2.09c0,-0.733 -0.093,-1.43 -0.28,-2.09c-0.187,-0.66 -0.473,-1.24 -0.86,-1.74c-0.387,-0.5 -0.87,-0.896 -1.45,-1.19c-0.58,-0.293 -1.263,-0.44 -2.05,-0.44c-0.84,0 -1.59,0.197 -2.25,0.59c-0.66,0.394 -1.137,0.95 -1.43,1.67l-0.04,0l0,-1.96l-1.16,0ZM36.148,46.709c0,0.534 -0.063,1.064 -0.19,1.59c-0.127,0.527 -0.327,0.997 -0.6,1.41c-0.273,0.414 -0.623,0.75 -1.05,1.01c-0.427,0.26 -0.94,0.39 -1.54,0.39c-0.667,0 -1.23,-0.13 -1.69,-0.39c-0.46,-0.26 -0.833,-0.596 -1.12,-1.01c-0.287,-0.413 -0.493,-0.883 -0.62,-1.41c-0.127,-0.526 -0.19,-1.056 -0.19,-1.59c0,-0.586 0.057,-1.146 0.17,-1.68c0.113,-0.533 0.31,-1 0.59,-1.4c0.28,-0.4 0.653,-0.72 1.12,-0.96c0.467,-0.24 1.047,-0.36 1.74,-0.36c0.6,0 1.113,0.13 1.54,0.39c0.427,0.26 0.777,0.597 1.05,1.01c0.273,0.414 0.473,0.884 0.6,1.41c0.127,0.527 0.19,1.057 0.19,1.59Z" style="fill:#00a2da;fill-rule:nonzero;"/><path d="M39.368,41.549l0,14.12l1.26,0l0,-5.76l0.04,0c0.133,0.374 0.323,0.7 0.57,0.98c0.247,0.28 0.53,0.514 0.85,0.7c0.32,0.187 0.667,0.327 1.04,0.42c0.373,0.094 0.747,0.14 1.12,0.14c0.787,0 1.47,-0.143 2.05,-0.43c0.58,-0.286 1.063,-0.68 1.45,-1.18c0.387,-0.5 0.673,-1.08 0.86,-1.74c0.187,-0.66 0.28,-1.356 0.28,-2.09c0,-0.733 -0.093,-1.43 -0.28,-2.09c-0.187,-0.66 -0.473,-1.24 -0.86,-1.74c-0.387,-0.5 -0.87,-0.896 -1.45,-1.19c-0.58,-0.293 -1.263,-0.44 -2.05,-0.44c-0.84,0 -1.59,0.197 -2.25,0.59c-0.66,0.394 -1.137,0.95 -1.43,1.67l-0.04,0l0,-1.96l-1.16,0ZM47.628,46.709c0,0.534 -0.063,1.064 -0.19,1.59c-0.127,0.527 -0.327,0.997 -0.6,1.41c-0.273,0.414 -0.623,0.75 -1.05,1.01c-0.427,0.26 -0.94,0.39 -1.54,0.39c-0.667,0 -1.23,-0.13 -1.69,-0.39c-0.46,-0.26 -0.833,-0.596 -1.12,-1.01c-0.287,-0.413 -0.493,-0.883 -0.62,-1.41c-0.127,-0.526 -0.19,-1.056 -0.19,-1.59c0,-0.586 0.057,-1.146 0.17,-1.68c0.113,-0.533 0.31,-1 0.59,-1.4c0.28,-0.4 0.653,-0.72 1.12,-0.96c0.467,-0.24 1.047,-0.36 1.74,-0.36c0.6,0 1.113,0.13 1.54,0.39c0.427,0.26 0.777,0.597 1.05,1.01c0.273,0.414 0.473,0.884 0.6,1.41c0.127,0.527 0.19,1.057 0.19,1.59Z" style="fill:#00a2da;fill-rule:nonzero;"/><path d="M23.588,9.671l0,22.861l17.512,0l0,-4.226l-12.068,0l0,-18.635l-5.444,0Z" style="fill:#9adffe;fill-rule:nonzero;"/></svg>